<svg width="204" height="180" viewBox="0 0 204 180" fill="none" xmlns="http://www.w3.org/2000/svg">
<circle cx="100.586" cy="90" r="90" fill="url(#paint0_linear_295_150426)"/>
<path d="M189.91 106.48C189.912 105.321 188.973 104.379 187.814 104.377H103.317C102.157 104.379 101.219 105.321 101.221 106.48L145.565 134.892L189.91 106.48Z" fill="white" stroke="black" stroke-width="0.7" stroke-linecap="round" stroke-linejoin="round"/>
<path d="M103.368 44.2812H103.368C99.4412 44.2812 96.2578 47.4758 96.2578 51.4164V88.9617H110.479V51.4164C110.479 47.4758 107.295 44.2812 103.368 44.2812Z" fill="white" stroke="black" stroke-width="0.7" stroke-linecap="round" stroke-linejoin="round"/>
<path d="M175.463 44.2813H122.861V44.2812H103.367C107.294 44.2812 110.478 47.4757 110.478 51.4164V56.7029V143.51H182.573V51.4164C182.573 47.4757 179.39 44.2813 175.463 44.2813Z" fill="white"/>
<mask id="mask0_295_150426" style="mask-type:luminance" maskUnits="userSpaceOnUse" x="103" y="44" width="80" height="100">
<path fill-rule="evenodd" clip-rule="evenodd" d="M175.463 44.2813H122.861V44.2812H103.367C107.294 44.2812 110.478 47.4757 110.478 51.4164V56.7029V143.51H182.573V51.4164C182.573 47.4757 179.39 44.2813 175.463 44.2813Z" fill="white"/>
</mask>
<g mask="url(#mask0_295_150426)">
<path d="M182.574 45.8965C178.857 144.451 96.2578 116.528 96.2578 116.528L110.479 155.401L185.992 172.248L206.138 79.1003L182.574 45.8965Z" fill="white"/>
</g>
<path fill-rule="evenodd" clip-rule="evenodd" d="M175.463 44.2813H122.861V44.2812H103.367C107.294 44.2812 110.478 47.4757 110.478 51.4164V56.7029V56.7029V143.51H182.573V51.4164C182.573 47.4757 179.39 44.2813 175.463 44.2813Z" stroke="black" stroke-width="0.7" stroke-linecap="round" stroke-linejoin="round"/>
<path d="M117.587 143.509C117.158 143.509 117.995 143.582 117.587 143.509V143.509Z" fill="black" stroke="black" stroke-width="0.7" stroke-linecap="round" stroke-linejoin="round"/>
<g opacity="0.73">
<path fill-rule="evenodd" clip-rule="evenodd" d="M117.98 74.7114C118.828 72.6798 120.817 71.3596 123.018 71.3672C126.017 71.3724 128.443 73.8074 128.438 76.8058C128.438 79.0072 127.111 80.9916 125.076 81.8323C123.042 82.6729 120.701 82.2042 119.147 80.6448C117.593 79.0854 117.132 76.7431 117.98 74.7114ZM120.636 77.7964C121.037 78.7571 121.977 79.3813 123.018 79.3777C123.699 79.3765 124.352 79.1049 124.832 78.6226C125.313 78.1403 125.582 77.4869 125.581 76.8061C125.581 75.7651 124.953 74.8268 123.991 74.4293C123.029 74.0318 121.922 74.2535 121.188 74.9909C120.453 75.7282 120.235 76.8358 120.636 77.7964Z" fill="white"/>
<path d="M123.018 71.3672L123.017 71.7172L123.018 71.7172L123.018 71.3672ZM117.98 74.7114L117.657 74.5766L117.98 74.7114ZM128.438 76.8058L128.088 76.8052V76.8058L128.438 76.8058ZM119.147 80.6448L119.395 80.3978V80.3978L119.147 80.6448ZM123.018 79.3777L123.018 79.0277L123.017 79.0277L123.018 79.3777ZM124.832 78.6226L125.08 78.8697H125.08L124.832 78.6226ZM125.581 76.8061L125.231 76.8061L125.231 76.8067L125.581 76.8061ZM123.991 74.4293L124.125 74.1059V74.1059L123.991 74.4293ZM121.188 74.9909L121.436 75.2379L121.188 74.9909ZM123.019 71.0172C120.676 71.0091 118.559 72.4142 117.657 74.5766L118.303 74.8462C119.096 72.9453 120.957 71.71 123.017 71.7172L123.019 71.0172ZM128.788 76.8064C128.794 73.6147 126.211 71.0228 123.019 71.0172L123.018 71.7172C125.823 71.7221 128.093 74.0001 128.088 76.8052L128.788 76.8064ZM125.21 82.1557C127.375 81.2609 128.788 79.1489 128.788 76.8058L128.088 76.8058C128.088 78.8656 126.846 80.7222 124.943 81.5088L125.21 82.1557ZM118.899 80.8919C120.553 82.5516 123.044 83.0505 125.21 82.1557L124.943 81.5088C123.039 82.2954 120.849 81.8568 119.395 80.3978L118.899 80.8919ZM117.657 74.5766C116.755 76.7391 117.245 79.2322 118.899 80.8919L119.395 80.3978C117.941 78.9387 117.51 76.7471 118.303 74.8462L117.657 74.5766ZM123.017 79.0277C122.118 79.0308 121.305 78.4916 120.959 77.6616L120.313 77.9312C120.768 79.0226 121.837 79.7318 123.019 79.7277L123.017 79.0277ZM124.584 78.3756C124.169 78.7921 123.606 79.0267 123.018 79.0277L123.019 79.7277C123.792 79.7263 124.534 79.4177 125.08 78.8697L124.584 78.3756ZM125.231 76.8067C125.232 77.3947 124.999 77.959 124.584 78.3756L125.08 78.8697C125.626 78.3216 125.932 77.5791 125.931 76.8054L125.231 76.8067ZM123.858 74.7528C124.689 75.0962 125.231 75.9068 125.231 76.8061L125.931 76.806C125.931 75.6234 125.218 74.5575 124.125 74.1059L123.858 74.7528ZM121.436 75.2379C122.07 74.6009 123.026 74.4094 123.858 74.7528L124.125 74.1059C123.032 73.6543 121.774 73.9061 120.94 74.7438L121.436 75.2379ZM120.959 77.6616C120.613 76.8317 120.801 75.8749 121.436 75.2379L120.94 74.7438C120.105 75.5815 119.857 76.8398 120.313 77.9312L120.959 77.6616Z" fill="black"/>
<rect x="130.998" y="73.0176" width="45.0136" height="3.03437" rx="0.76546" fill="white" stroke="black" stroke-width="0.7" stroke-linecap="round" stroke-linejoin="round"/>
<rect x="130.998" y="77.6055" width="16.4555" height="2.98852" rx="0.75389" fill="white" stroke="black" stroke-width="0.7" stroke-linecap="round" stroke-linejoin="round"/>
<rect x="149.264" y="77.6055" width="16.4555" height="2.98852" rx="0.75389" fill="white" stroke="black" stroke-width="0.7" stroke-linecap="round" stroke-linejoin="round"/>
</g>
<g opacity="0.73">
<path fill-rule="evenodd" clip-rule="evenodd" d="M117.98 114.434C118.828 112.402 120.817 111.082 123.018 111.09C126.017 111.095 128.443 113.53 128.438 116.528C128.438 118.73 127.111 120.714 125.076 121.555C123.042 122.396 120.701 121.927 119.147 120.367C117.593 118.808 117.132 116.466 117.98 114.434ZM120.636 117.519C121.037 118.48 121.977 119.104 123.018 119.1C123.699 119.099 124.352 118.828 124.832 118.345C125.313 117.863 125.582 117.21 125.581 116.529C125.581 115.488 124.953 114.55 123.991 114.152C123.029 113.754 121.922 113.976 121.188 114.714C120.453 115.451 120.235 116.558 120.636 117.519Z" fill="white"/>
<path d="M123.018 111.09L123.017 111.44L123.018 111.44L123.018 111.09ZM117.98 114.434L117.657 114.299L117.98 114.434ZM128.438 116.528L128.088 116.528V116.528L128.438 116.528ZM119.147 120.367L119.395 120.12V120.12L119.147 120.367ZM123.018 119.1L123.018 118.75L123.017 118.75L123.018 119.1ZM120.636 117.519L120.313 117.654L120.636 117.519ZM125.581 116.529L125.231 116.529L125.231 116.529L125.581 116.529ZM123.991 114.152L124.125 113.829L123.991 114.152ZM121.188 114.714L120.94 114.466V114.466L121.188 114.714ZM123.019 110.74C120.676 110.732 118.559 112.137 117.657 114.299L118.303 114.569C119.096 112.668 120.957 111.433 123.017 111.44L123.019 110.74ZM128.788 116.529C128.794 113.337 126.211 110.745 123.019 110.74L123.018 111.44C125.823 111.445 128.093 113.723 128.088 116.528L128.788 116.529ZM125.21 121.878C127.375 120.984 128.788 118.872 128.788 116.528L128.088 116.528C128.088 118.588 126.846 120.445 124.943 121.231L125.21 121.878ZM118.899 120.615C120.553 122.274 123.044 122.773 125.21 121.878L124.943 121.231C123.039 122.018 120.849 121.579 119.395 120.12L118.899 120.615ZM117.657 114.299C116.755 116.462 117.245 118.955 118.899 120.615L119.395 120.12C117.941 118.661 117.51 116.47 118.303 114.569L117.657 114.299ZM123.017 118.75C122.118 118.753 121.305 118.214 120.959 117.384L120.313 117.654C120.768 118.745 121.837 119.454 123.019 119.45L123.017 118.75ZM124.584 118.098C124.169 118.515 123.606 118.749 123.018 118.75L123.019 119.45C123.792 119.449 124.534 119.14 125.08 118.592L124.584 118.098ZM125.231 116.529C125.232 117.117 124.999 117.682 124.584 118.098L125.08 118.592C125.626 118.044 125.932 117.302 125.931 116.528L125.231 116.529ZM123.858 114.475C124.689 114.819 125.231 115.629 125.231 116.529L125.931 116.529C125.931 115.346 125.218 114.28 124.125 113.829L123.858 114.475ZM121.436 114.961C122.07 114.324 123.026 114.132 123.858 114.475L124.125 113.829C123.032 113.377 121.774 113.629 120.94 114.466L121.436 114.961ZM120.959 117.384C120.613 116.554 120.801 115.598 121.436 114.961L120.94 114.466C120.105 115.304 119.857 116.562 120.313 117.654L120.959 117.384Z" fill="black"/>
<rect x="130.998" y="112.74" width="45.0136" height="3.03437" rx="0.76546" fill="white" stroke="black" stroke-width="0.7" stroke-linecap="round" stroke-linejoin="round"/>
<rect x="130.998" y="117.328" width="16.4555" height="2.98852" rx="0.75389" fill="white" stroke="black" stroke-width="0.7" stroke-linecap="round" stroke-linejoin="round"/>
<rect x="149.264" y="117.328" width="16.4555" height="2.98852" rx="0.75389" fill="white" stroke="black" stroke-width="0.7" stroke-linecap="round" stroke-linejoin="round"/>
</g>
<rect x="138.793" y="55.4297" width="16.0213" height="3.09743" rx="0.78137" fill="white" stroke="black" stroke-width="0.7" stroke-linecap="round" stroke-linejoin="round"/>
<rect x="133.355" y="61.5508" width="26.8981" height="1.76996" rx="0.4465" fill="white" stroke="black" stroke-width="0.7" stroke-linecap="round" stroke-linejoin="round"/>
<path fill-rule="evenodd" clip-rule="evenodd" d="M117.98 94.5728C118.828 92.5411 120.817 91.2209 123.018 91.2285C126.017 91.2338 128.443 93.6687 128.438 96.6671C128.438 98.8686 127.111 100.853 125.076 101.694C123.042 102.534 120.701 102.066 119.147 100.506C117.593 98.9468 117.132 96.6044 117.98 94.5728ZM120.636 97.6578C121.037 98.6184 121.977 99.2427 123.018 99.239C123.699 99.2378 124.352 98.9662 124.832 98.484C125.313 98.0017 125.582 97.3482 125.581 96.6674C125.581 95.6264 124.953 94.6882 123.991 94.2907C123.029 93.8932 121.922 94.1148 121.188 94.8522C120.453 95.5895 120.235 96.6971 120.636 97.6578Z" fill="white"/>
<path d="M123.018 91.2285L123.017 91.5785L123.018 91.5785L123.018 91.2285ZM117.98 94.5728L117.657 94.438L117.98 94.5728ZM128.438 96.6671L128.088 96.6665V96.6671L128.438 96.6671ZM119.147 100.506L119.395 100.259V100.259L119.147 100.506ZM123.018 99.239L123.018 98.889L123.017 98.889L123.018 99.239ZM120.636 97.6578L120.313 97.7925L120.636 97.6578ZM125.581 96.6674L125.231 96.6674L125.231 96.668L125.581 96.6674ZM123.991 94.2907L124.125 93.9672L123.991 94.2907ZM121.188 94.8522L120.94 94.6051V94.6051L121.188 94.8522ZM123.019 90.8786C120.676 90.8704 118.559 92.2756 117.657 94.438L118.303 94.7075C119.096 92.8066 120.957 91.5714 123.017 91.5785L123.019 90.8786ZM128.788 96.6677C128.794 93.476 126.211 90.8841 123.019 90.8785L123.018 91.5785C125.823 91.5834 128.093 93.8614 128.088 96.6665L128.788 96.6677ZM125.21 102.017C127.375 101.122 128.788 99.0102 128.788 96.6671L128.088 96.6671C128.088 98.7269 126.846 100.584 124.943 101.37L125.21 102.017ZM118.899 100.753C120.553 102.413 123.044 102.912 125.21 102.017L124.943 101.37C123.039 102.157 120.849 101.718 119.395 100.259L118.899 100.753ZM117.657 94.438C116.755 96.6004 117.245 99.0935 118.899 100.753L119.395 100.259C117.941 98.8001 117.51 96.6085 118.303 94.7075L117.657 94.438ZM123.017 98.889C122.118 98.8922 121.305 98.3529 120.959 97.523L120.313 97.7925C120.768 98.8839 121.837 99.5932 123.019 99.589L123.017 98.889ZM124.584 98.2369C124.169 98.6534 123.606 98.888 123.018 98.889L123.019 99.589C123.792 99.5877 124.534 99.279 125.08 98.731L124.584 98.2369ZM125.231 96.668C125.232 97.256 124.999 97.8204 124.584 98.2369L125.08 98.731C125.626 98.183 125.932 97.4405 125.931 96.6668L125.231 96.668ZM123.858 94.6141C124.689 94.9575 125.231 95.7681 125.231 96.6674L125.931 96.6674C125.931 95.4848 125.218 94.4188 124.125 93.9672L123.858 94.6141ZM121.436 95.0992C122.07 94.4622 123.026 94.2707 123.858 94.6141L124.125 93.9672C123.032 93.5156 121.774 93.7674 120.94 94.6051L121.436 95.0992ZM120.959 97.523C120.613 96.6931 120.801 95.7362 121.436 95.0992L120.94 94.6051C120.105 95.4428 119.857 96.7011 120.313 97.7925L120.959 97.523Z" fill="black"/>
<rect x="130.996" y="92.8789" width="45.0136" height="3.03437" rx="0.76546" fill="white" stroke="black" stroke-width="0.7" stroke-linecap="round" stroke-linejoin="round"/>
<rect x="130.996" y="97.4668" width="16.4555" height="2.98852" rx="0.75389" fill="white" stroke="black" stroke-width="0.7" stroke-linecap="round" stroke-linejoin="round"/>
<rect x="149.264" y="97.4668" width="16.4555" height="2.98852" rx="0.75389" fill="white" stroke="black" stroke-width="0.7" stroke-linecap="round" stroke-linejoin="round"/>
<path d="M145.565 134.893L101.221 106.481V160.013C101.216 162.988 103.623 165.403 106.597 165.408H184.533C187.508 165.403 189.915 162.988 189.91 160.013V106.48L145.565 134.893Z" fill="white"/>
<path fill-rule="evenodd" clip-rule="evenodd" d="M145.565 134.893L101.221 106.481V160.013C101.216 162.988 103.623 165.403 106.597 165.408H184.533C187.508 165.403 189.915 162.988 189.91 160.013V106.48L145.565 134.893Z" fill="#898CA9" stroke="black" stroke-width="0.7" stroke-linecap="round" stroke-linejoin="round"/>
<path d="M173.662 138.68C170.982 141.658 167.85 144.195 164.381 146.198" stroke="black" stroke-width="0.7" stroke-linecap="round" stroke-linejoin="round"/>
<rect x="83.9082" y="102.629" width="12.2574" height="26.946" fill="white"/>
<mask id="mask1_295_150426" style="mask-type:luminance" maskUnits="userSpaceOnUse" x="83" y="102" width="14" height="28">
<rect x="83.9082" y="102.629" width="12.2574" height="26.946" fill="white"/>
</mask>
<g mask="url(#mask1_295_150426)">
<path d="M98.6721 106.727C95.4544 116.134 85.2415 108.652 84.9617 115.291C84.6819 121.93 94.5418 123.094 100.035 121.93C105.527 120.766 96.165 132.7 96.165 132.7L74.8887 126.382L79.9252 106.025L89.0189 106.447" fill="white"/>
</g>
<rect x="83.9082" y="102.629" width="12.2574" height="26.946" stroke="black" stroke-width="0.7" stroke-linecap="round" stroke-linejoin="round"/>
<path d="M90.0359 165.407C83.9995 165.407 79.1459 160.421 79.2862 154.366L80.0377 121.93H100.034L100.786 154.366C100.926 160.421 96.0723 165.407 90.0359 165.407Z" fill="#8D6AE2"/>
<path fill-rule="evenodd" clip-rule="evenodd" d="M90.0359 165.407V165.407C83.9995 165.407 79.1459 160.421 79.2862 154.366L80.0377 121.93H100.034L100.786 154.366C100.926 160.421 96.0723 165.407 90.0359 165.407Z" stroke="black" stroke-width="0.7" stroke-linecap="round" stroke-linejoin="round"/>
<path fill-rule="evenodd" clip-rule="evenodd" d="M56.1445 77.8809C56.1445 59.2338 71.2084 44.1172 89.7909 44.1172C108.373 44.1172 123.437 59.2338 123.437 77.8809C123.437 96.5282 108.373 111.645 89.7909 111.645C71.2084 111.645 56.1445 96.5282 56.1445 77.8809ZM65.127 77.8818C65.127 91.5503 76.169 102.631 89.79 102.631C103.411 102.631 114.453 91.5503 114.453 77.8818C114.453 64.2133 103.411 53.1328 89.79 53.1328C76.169 53.1328 65.127 64.2133 65.127 77.8818Z" fill="black"/>
<path fill-rule="evenodd" clip-rule="evenodd" d="M89.7909 44.1172C71.2084 44.1172 56.1445 59.2338 56.1445 77.8809C56.1445 96.5282 71.2084 111.645 89.7909 111.645C108.373 111.645 123.437 96.5282 123.437 77.8809C123.437 59.2338 108.373 44.1172 89.7909 44.1172ZM89.79 102.631C76.169 102.631 65.127 91.5503 65.127 77.8818C65.127 64.2133 76.169 53.1328 89.79 53.1328C103.411 53.1328 114.453 64.2133 114.453 77.8818C114.453 91.5503 103.411 102.631 89.79 102.631Z" fill="#8D6AE2"/>
<path d="M123.437 77.8809H123.937H123.437ZM89.7909 43.6172C70.9306 43.6172 55.6445 58.9593 55.6445 77.8809H56.6445C56.6445 59.5083 71.4862 44.6172 89.7909 44.6172V43.6172ZM55.6445 77.8809C55.6445 96.8027 70.9307 112.145 89.7909 112.145V111.145C71.4862 111.145 56.6445 96.2537 56.6445 77.8809H55.6445ZM89.7909 112.145C108.651 112.145 123.937 96.8027 123.937 77.8809H122.937C122.937 96.2537 108.096 111.145 89.7909 111.145V112.145ZM123.937 77.8809C123.937 58.9593 108.651 43.6172 89.7909 43.6172V44.6172C108.096 44.6172 122.937 59.5083 122.937 77.8809H123.937ZM89.79 102.131C76.4468 102.131 65.627 91.2758 65.627 77.8818H64.627C64.627 91.8248 75.8912 103.131 89.79 103.131V102.131ZM65.627 77.8818C65.627 64.4878 76.4468 53.6328 89.79 53.6328V52.6328C75.8912 52.6328 64.627 63.9388 64.627 77.8818H65.627ZM89.79 53.6328C103.133 53.6328 113.953 64.4878 113.953 77.8818H114.953C114.953 63.9388 103.689 52.6328 89.79 52.6328V53.6328ZM113.953 77.8818C113.953 91.2758 103.133 102.131 89.79 102.131V103.131C103.689 103.131 114.953 91.8248 114.953 77.8818H113.953Z" fill="black"/>
<path d="M75.5557 52.3555C74.1089 53.9006 72.4098 55.1884 70.5312 56.1639" stroke="black" stroke-width="0.7" stroke-linecap="round" stroke-linejoin="round"/>
<path d="M93.1888 142.912L91.9297 144.597" stroke="black" stroke-width="0.7" stroke-linecap="round" stroke-linejoin="round"/>
<rect x="1" y="107.646" width="115.722" height="29.3805" rx="9.26912" fill="white"/>
<rect x="1" y="107.646" width="115.722" height="29.3805" rx="9.26912" stroke="black" stroke-width="0.7" stroke-linecap="round" stroke-linejoin="round"/>
<g opacity="0.49">
<rect x="35.8672" y="115.328" width="66.623" height="4.63579" rx="2.3179" fill="#898CA9" stroke="black" stroke-width="0.7" stroke-linecap="round" stroke-linejoin="round"/>
<rect x="35.8672" y="122.338" width="24.3552" height="4.56573" rx="2.28286" fill="#898CA9" stroke="black" stroke-width="0.7" stroke-linecap="round" stroke-linejoin="round"/>
<rect x="62.9023" y="122.338" width="24.3552" height="4.56573" rx="2.28286" fill="#898CA9" stroke="black" stroke-width="0.7" stroke-linecap="round" stroke-linejoin="round"/>
</g>
<path d="M18.7099 128.226C18.2605 128.226 17.8275 128.057 17.4972 127.753L11.4342 122.175C10.7035 121.505 10.6533 120.37 11.3221 119.638C11.9909 118.906 13.1261 118.853 13.8595 119.521L18.6892 123.963L27.2433 115.823C27.7101 115.382 28.3768 115.223 28.9923 115.407C29.6078 115.591 30.0785 116.089 30.2272 116.714C30.3758 117.339 30.1799 117.995 29.7131 118.436L19.9448 127.732C19.6121 128.049 19.1698 128.226 18.7099 128.226Z" fill="#73F4AD" stroke="black" stroke-width="0.7" stroke-linecap="round" stroke-linejoin="round"/>
<path d="M17.273 113.23L16.4336 114.073" stroke="black" stroke-width="0.7" stroke-linecap="round" stroke-linejoin="round"/>
<path d="M104.539 128.078C103.034 129.451 101.203 130.416 99.2207 130.885" stroke="black" stroke-width="0.7" stroke-linecap="round" stroke-linejoin="round"/>
<path d="M22.9316 68.1272C22.9316 68.1272 23.7679 52.6789 29.855 50.3184L32.0222 60.3882L32.0662 59.2197L24.8304 75.0543" fill="#73F4AD"/>
<path d="M22.9316 68.1272C22.9316 68.1272 23.7679 52.6789 29.855 50.3184L32.0222 60.3882L32.0662 59.2197L24.8304 75.0543" stroke="black" stroke-width="0.7" stroke-linecap="round" stroke-linejoin="round"/>
<path d="M64.9434 85.0096C64.9434 85.0096 66.6012 91.2775 69.349 90.8347C72.0968 90.392 76.7008 91.8417 76.7008 91.8417C76.7008 91.8417 77.9944 91.3415 76.0985 89.971L78.4404 90.4973C78.4404 90.4973 79.5851 90.063 78.0503 89.2858C78.0503 89.2858 80.0659 89.7959 82.5498 88.5924C82.5498 88.5924 82.5033 87.3918 81.8851 87.584C81.2669 87.7762 72.8634 87.0229 72.1923 86.2295C71.5212 85.436 69.7332 82.6992 69.7332 82.6992L64.9434 85.0096Z" fill="white"/>
<mask id="mask2_295_150426" style="mask-type:luminance" maskUnits="userSpaceOnUse" x="64" y="82" width="19" height="10">
<path fill-rule="evenodd" clip-rule="evenodd" d="M64.9434 85.0096C64.9434 85.0096 66.6012 91.2775 69.349 90.8347C72.0968 90.392 76.7008 91.8417 76.7008 91.8417C76.7008 91.8417 77.9944 91.3415 76.0985 89.971L78.4404 90.4973C78.4404 90.4973 79.5851 90.063 78.0503 89.2858C78.0503 89.2858 80.0659 89.7959 82.5498 88.5924C82.5498 88.5924 82.5033 87.3918 81.8851 87.584C81.2669 87.7762 72.8634 87.0229 72.1923 86.2295C71.5212 85.436 69.7332 82.6992 69.7332 82.6992L64.9434 85.0096Z" fill="white"/>
</mask>
<g mask="url(#mask2_295_150426)">
<path d="M62.8169 87.2705C72.1854 88.2766 72.9661 84.3396 72.9661 84.3396L67.8915 82.6992L61.4785 85.9372" fill="white"/>
</g>
<path fill-rule="evenodd" clip-rule="evenodd" d="M64.9434 85.0096C64.9434 85.0096 66.6012 91.2775 69.349 90.8347C72.0968 90.392 76.7008 91.8417 76.7008 91.8417C76.7008 91.8417 77.9944 91.3415 76.0985 89.971L78.4404 90.4973C78.4404 90.4973 79.5851 90.063 78.0503 89.2858C78.0503 89.2858 80.0659 89.7959 82.5498 88.5924C82.5498 88.5924 82.5033 87.3918 81.8851 87.584C81.2669 87.7762 72.8634 87.0229 72.1923 86.2295C71.5212 85.436 69.7332 82.6992 69.7332 82.6992L64.9434 85.0096Z" stroke="black" stroke-width="0.7" stroke-linecap="round" stroke-linejoin="round"/>
<path d="M58.6699 141.108L64.9666 162.172L70.6516 159.877L65.5725 136.725L58.6699 141.108Z" fill="white"/>
<mask id="mask3_295_150426" style="mask-type:luminance" maskUnits="userSpaceOnUse" x="58" y="136" width="13" height="27">
<path fill-rule="evenodd" clip-rule="evenodd" d="M58.6699 141.108L64.9666 162.172L70.6516 159.877L65.5725 136.725L58.6699 141.108Z" fill="white"/>
</mask>
<g mask="url(#mask3_295_150426)">
<path d="M58.0547 153.467C63.6158 155.256 68.9359 149.015 68.9359 149.015L60.8745 148.484L58.0547 151.392" fill="white"/>
</g>
<path fill-rule="evenodd" clip-rule="evenodd" d="M58.6699 141.108L64.9666 162.172L70.6516 159.877L65.5725 136.725L58.6699 141.108V141.108Z" stroke="black" stroke-width="0.7" stroke-linecap="round" stroke-linejoin="round"/>
<path d="M41.3598 148.027C41.2762 148.374 42.4284 160.753 42.4284 160.753L49.6007 160.001L48.095 142.475L41.3598 148.027Z" fill="white"/>
<mask id="mask4_295_150426" style="mask-type:luminance" maskUnits="userSpaceOnUse" x="41" y="142" width="9" height="19">
<path fill-rule="evenodd" clip-rule="evenodd" d="M41.3598 148.027C41.2762 148.374 42.4284 160.753 42.4284 160.753L49.6007 160.001L48.095 142.475L41.3598 148.027Z" fill="white"/>
</mask>
<g mask="url(#mask4_295_150426)">
<path d="M41.8969 150.812C36.5457 152.384 47.4581 154.715 50.0813 154.118C52.7044 153.522 52.2847 149.944 52.2847 149.944L44.9923 149.836" fill="white"/>
</g>
<path fill-rule="evenodd" clip-rule="evenodd" d="M41.3598 148.027C41.2762 148.374 42.4284 160.753 42.4284 160.753L49.6007 160.001L48.095 142.475L41.3598 148.027Z" stroke="black" stroke-width="0.7" stroke-linecap="round" stroke-linejoin="round"/>
<path d="M33.9277 77.3062L40.8632 152.269C40.8632 152.269 44.1785 154.287 51.8716 151.061L46.857 98.038L49.2885 70.0566L33.9277 77.3062Z" fill="white"/>
<path fill-rule="evenodd" clip-rule="evenodd" d="M33.9277 77.3062L40.8632 152.269C40.8632 152.269 44.1785 154.287 51.8716 151.061L46.857 98.038L49.2885 70.0566L33.9277 77.3062Z" stroke="black" stroke-width="0.7" stroke-linecap="round" stroke-linejoin="round"/>
<path d="M42.901 88.3203L60.2267 151.004C60.2267 151.004 61.5415 152.893 70.2845 148.335L53.3257 71.9082L38.998 74.1995" fill="white"/>
<path d="M42.901 88.3203L60.2267 151.004C60.2267 151.004 61.5415 152.893 70.2845 148.335L53.3257 71.9082L38.998 74.1995" stroke="black" stroke-width="0.7" stroke-linecap="round" stroke-linejoin="round"/>
<path d="M29.2441 60.7248C29.431 65.2624 30.252 70.7028 32.5607 75.8109C32.5607 75.8109 31.538 78.5557 32.53 79.0623C38.5765 82.1499 50.4494 81.5186 54.8003 79.2044C55.7307 78.7095 55.9046 77.4253 55.1543 76.6326L54.7192 76.1728C54.7192 76.1728 58.0959 57.5343 53.1462 50.317C53.1462 50.317 44.8727 45.2599 29.6418 50.4067" fill="#73F4AD"/>
<mask id="mask5_295_150426" style="mask-type:luminance" maskUnits="userSpaceOnUse" x="29" y="48" width="27" height="34">
<path fill-rule="evenodd" clip-rule="evenodd" d="M29.2441 60.7248C29.431 65.2624 30.252 70.7028 32.5607 75.8109C32.5607 75.8109 31.538 78.5557 32.53 79.0623C38.5765 82.1499 50.4494 81.5186 54.8003 79.2044C55.7307 78.7095 55.9046 77.4253 55.1543 76.6326L54.7192 76.1728C54.7192 76.1728 58.0959 57.5343 53.1462 50.317C53.1462 50.317 44.8727 45.2599 29.6418 50.4067" fill="white"/>
</mask>
<g mask="url(#mask5_295_150426)">
<ellipse cx="41.2652" cy="49.7576" rx="6.66461" ry="5.2328" transform="rotate(-24.8803 41.2652 49.7576)" fill="white" stroke="black" stroke-width="0.7" stroke-linecap="round" stroke-linejoin="round"/>
<ellipse cx="41.2376" cy="48.8514" rx="5.85253" ry="5.09564" transform="rotate(-26.9003 41.2376 48.8514)" fill="white" stroke="black" stroke-width="0.7" stroke-linecap="round" stroke-linejoin="round"/>
</g>
<path d="M29.2441 60.7248C29.431 65.2623 30.252 70.7028 32.5607 75.8109C32.5607 75.8109 31.538 78.5557 32.53 79.0623C38.5765 82.1499 50.4494 81.5186 54.8003 79.2044C55.7307 78.7095 55.9046 77.4253 55.1543 76.6326L54.7192 76.1728C54.7192 76.1728 58.0959 57.5343 53.1462 50.317C53.1462 50.317 44.8727 45.2599 29.6418 50.4067" stroke="black" stroke-width="0.7" stroke-linecap="round" stroke-linejoin="round"/>
<path d="M47.5605 58.0131L65.1152 87.272C67.2828 87.1295 71.1924 85.9982 72.1793 83.0019L55.4872 52.241C54.0551 50.3416 51.2628 49.3308 50.0311 49.0762" fill="#73F4AD"/>
<path d="M47.5605 58.0131L65.1152 87.272C67.2828 87.1295 71.1924 85.9982 72.1793 83.0019L55.4872 52.241C54.0551 50.3416 51.2628 49.3308 50.0311 49.0762" stroke="black" stroke-width="0.7" stroke-linecap="round" stroke-linejoin="round"/>
<path d="M49.1705 164.34H27.6765C27.6765 164.34 26.16 161.316 35.5381 161.448C42.5041 161.546 41.5999 155.824 41.5999 155.824C41.5999 155.824 44.3009 158.116 49.82 157.978L50.6493 162.567C50.733 163.007 50.6156 163.46 50.3292 163.804C50.0428 164.147 49.6176 164.344 49.1705 164.34Z" fill="#898CA9" stroke="black" stroke-width="0.7" stroke-linecap="round" stroke-linejoin="round"/>
<path d="M63.9121 158.805C63.9121 158.805 69.0679 157.099 70.0623 155.279C70.0623 155.279 71.3457 164.095 78.4614 162.874C86.2081 161.545 86.0419 165.407 86.0419 165.407H66.8428C65.8549 165.402 65.0092 164.697 64.825 163.727L63.9121 158.805Z" fill="#898CA9" stroke="black" stroke-width="0.7" stroke-linecap="round" stroke-linejoin="round"/>
<path d="M24.2889 51.4543C24.2889 51.4543 24.8799 48.0564 25.3331 46.203C25.7862 44.3497 19.7757 43.6289 19.7757 43.6289L19.373 53.1017L24.2889 51.4543Z" fill="white" stroke="black" stroke-width="0.7" stroke-linecap="round" stroke-linejoin="round"/>
<path d="M20.8696 49.6413H18.8193C18.5638 49.6391 18.3254 49.5127 18.1802 49.3025C18.0349 49.0922 18.0011 48.8245 18.0895 48.5847L21.4794 39.7793H24.3098L21.5718 49.1161C21.4813 49.4284 21.1947 49.6427 20.8696 49.6413Z" fill="black" stroke="black" stroke-width="0.7" stroke-linecap="round" stroke-linejoin="round"/>
<path d="M18.6234 47.6268C18.6234 47.6268 21.9903 49.9693 21.9041 48.0129C21.9041 48.0129 22.7474 47.7555 22.317 46.7774C22.317 46.7774 22.9687 46.1081 22.6391 45.3616C22.6391 45.3616 20.1381 42.1182 19.3496 42.2212C18.5612 42.3241 18.6106 43.9201 18.9306 44.3577C18.9306 44.3577 17.8717 45.619 18.5795 46.211C18.5795 46.211 17.7657 47.0987 18.6234 47.6268Z" fill="white" stroke="black" stroke-width="0.7" stroke-linecap="round" stroke-linejoin="round"/>
<path d="M23.4636 45.3849C23.3034 44.7538 23.1697 43.7693 21.5864 42.6164C21.5864 42.6164 21.074 41.7182 21.5208 41.2154C21.9676 40.7126 24.7453 43.1058 25.3157 43.6924C25.8862 44.279 25.4096 45.6872 25.2863 46.2064" fill="white"/>
<path d="M23.4636 45.3849C23.3034 44.7538 23.1697 43.7693 21.5864 42.6164C21.5864 42.6164 21.074 41.7182 21.5208 41.2154C21.9676 40.7126 24.7453 43.1058 25.3157 43.6924C25.8862 44.279 25.4096 45.6872 25.2863 46.2064" stroke="black" stroke-width="0.7" stroke-linecap="round" stroke-linejoin="round"/>
<path d="M25.1849 73.9459C24.696 76.1333 23.2148 77.7201 21.4104 77.7977L21.3618 77.7998C18.7432 77.9125 16.6057 74.8431 16.8932 71.3829L18.5459 51.4911C21.8801 49.9936 25.5881 49.8574 25.5881 49.8574L25.4212 66.1119" fill="#73F4AD"/>
<path d="M25.1849 73.9459C24.696 76.1333 23.2148 77.7201 21.4104 77.7977L21.3618 77.7998C18.7432 77.9125 16.6057 74.8431 16.8932 71.3829L18.5459 51.4911C21.8801 49.9936 25.5881 49.8574 25.5881 49.8574L25.4212 66.1119" stroke="black" stroke-width="0.7" stroke-linecap="round" stroke-linejoin="round"/>
<path d="M14.4466 29.1348C14.4466 29.1348 17.3172 33.5996 24.2835 34.0493C25.5097 34.1379 26.4824 35.1177 26.5622 36.3445C26.6082 37.1485 26.5909 38.0619 26.4119 38.9023C26.1686 40.0999 25.0297 40.897 23.8212 40.7153C21.5567 40.3748 16.083 40.2414 12.1406 42.2183L14.4466 29.1348Z" fill="#8D6AE2"/>
<path fill-rule="evenodd" clip-rule="evenodd" d="M14.4466 29.1348C14.4466 29.1348 17.3172 33.5996 24.2835 34.0493C25.5097 34.1379 26.4824 35.1177 26.5622 36.3445C26.6082 37.1485 26.5909 38.0619 26.4119 38.9023C26.1686 40.0999 25.0297 40.897 23.8212 40.7153C21.5567 40.3748 16.083 40.2414 12.1406 42.2183L14.4466 29.1348Z" stroke="black" stroke-width="0.7" stroke-linecap="round" stroke-linejoin="round"/>
<ellipse cx="12.8624" cy="35.5232" rx="6.94776" ry="2.5283" transform="rotate(-81.509 12.8624 35.5232)" fill="url(#paint1_linear_295_150426)"/>
<ellipse cx="12.8616" cy="35.5252" rx="6.77249" ry="2.46452" transform="rotate(-81.5061 12.8616 35.5252)" fill="black"/>
<mask id="mask6_295_150426" style="mask-type:luminance" maskUnits="userSpaceOnUse" x="10" y="28" width="6" height="15">
<ellipse cx="12.8616" cy="35.5252" rx="6.77249" ry="2.46452" transform="rotate(-81.5061 12.8616 35.5252)" fill="white"/>
</mask>
<g mask="url(#mask6_295_150426)">
<path d="M12.8608 27.4121C7.91316 43.9431 15.1531 40.2303 15.1531 40.2303C15.1531 40.2303 14.2613 44.7153 13.894 44.7085C13.5267 44.7017 8.49029 42.3973 8.49029 42.3973L8.12305 37.4149" fill="white"/>
</g>
<ellipse cx="12.8616" cy="35.5252" rx="6.77249" ry="2.46452" transform="rotate(-81.5061 12.8616 35.5252)" fill="#D9D9D9" stroke="black" stroke-width="0.699978" stroke-linecap="round" stroke-linejoin="round"/>
<mask id="mask7_295_150426" style="mask-type:luminance" maskUnits="userSpaceOnUse" x="10" y="28" width="6" height="15">
<ellipse cx="12.6993" cy="35.5231" rx="6.76408" ry="2.31633" transform="rotate(-82.1639 12.6993 35.5231)" fill="white"/>
</mask>
<g mask="url(#mask7_295_150426)">
<ellipse cx="14.3862" cy="35.953" rx="2.13847" ry="1.99657" transform="rotate(-78.7803 14.3862 35.953)" fill="white" stroke="black" stroke-width="0.7" stroke-linecap="round" stroke-linejoin="round"/>
</g>
<path d="M44.5566 49.0985L42.0531 41.2617L36.2402 42.3904L37.1516 49.5641" fill="white"/>
<path d="M41.1073 41.6973C36.8614 42.6041 38.6122 47.7005 36.7491 49.2339C34.8861 50.7674 35.8518 42.3356 35.8518 42.3356L39.4264 42.126" fill="white"/>
<path d="M35.3184 46.7386C38.6061 46.7386 37.7356 43.9659 37.7356 43.9659L36.8714 43.4043L35.4933 45.1578L35.4233 45.5055" fill="white"/>
<path d="M44.5566 49.0985L42.0531 41.2617L36.2402 42.3904L37.1516 49.5641" stroke="black" stroke-width="0.7" stroke-linecap="round" stroke-linejoin="round"/>
<path d="M39.4816 40.3567C29.5356 36.1627 34.6214 27.5756 37.3742 30.5856C40.127 33.5956 41.8709 34.5847 41.8709 34.5847L39.4816 40.3567Z" fill="#898CA9" stroke="black" stroke-width="0.7" stroke-linecap="round" stroke-linejoin="round"/>
<path d="M38.3259 44.1587C28.5307 47.4898 33.9769 34.0511 36.8803 33.2382C39.9676 32.3739 43.4155 41.3636 43.4155 41.3636" fill="white"/>
<mask id="mask8_295_150426" style="mask-type:luminance" maskUnits="userSpaceOnUse" x="32" y="33" width="12" height="12">
<path fill-rule="evenodd" clip-rule="evenodd" d="M38.3259 44.1587C28.5307 47.4898 33.9769 34.0511 36.8803 33.2382C39.9676 32.3739 43.4155 41.3636 43.4155 41.3636" fill="white"/>
</mask>
<g mask="url(#mask8_295_150426)">
<path d="M34.2343 38.6C34.0029 38.5275 33.8738 38.2814 33.9457 38.0498L34.1649 37.3406C34.1991 37.2293 34.2761 37.1363 34.379 37.082C34.4818 37.0276 34.6021 37.0164 34.7132 37.0509C34.9446 37.1234 35.0737 37.3695 35.0019 37.6011L34.7826 38.3103C34.7484 38.4216 34.6714 38.5146 34.5686 38.5689C34.4657 38.6233 34.3454 38.6345 34.2343 38.6Z" fill="black"/>
<path d="M37.416 39.3305C37.1845 39.258 37.0554 39.0119 37.1273 38.7803L37.3466 38.071C37.3807 37.9598 37.4577 37.8668 37.5606 37.8124C37.6635 37.7581 37.7837 37.7469 37.8949 37.7814C38.1263 37.8539 38.2554 38.1 38.1835 38.3316L37.9643 39.0408C37.9301 39.152 37.8531 39.2451 37.7502 39.2994C37.6473 39.3538 37.5271 39.3649 37.416 39.3305Z" fill="black"/>
<path d="M35.6242 38.6406C35.3541 39.5492 35.2774 39.8177 35.2774 39.8177C33.7321 39.6571 35.06 41.1261 35.06 41.1261" fill="white"/>
<path d="M35.6242 38.6406C35.3541 39.5492 35.2774 39.8177 35.2774 39.8177C33.7321 39.6571 35.06 41.1261 35.06 41.1261" stroke="black" stroke-width="0.7" stroke-linecap="round" stroke-linejoin="round"/>
<path d="M35.9841 41.418C35.884 41.73 35.5775 41.9279 35.252 41.8907L35.9841 41.418Z" fill="white"/>
<path d="M35.9841 41.418C35.884 41.73 35.5775 41.9279 35.252 41.8907" stroke="black" stroke-width="0.7" stroke-linecap="round" stroke-linejoin="round"/>
<path d="M34.9154 36.0277C33.9841 36.0118 34.0749 36.5521 34.6564 36.6002C35.2379 36.6482 35.5238 36.0381 34.9154 36.0277Z" fill="black"/>
<path d="M38.1865 36.7508C38.9633 37.2667 38.6594 37.6448 38.1529 37.3542C37.6464 37.0635 37.679 36.4138 38.1865 36.7508Z" fill="black"/>
</g>
<path d="M38.3259 44.1587C28.5307 47.4898 33.9769 34.0511 36.8803 33.2382C39.9676 32.3739 43.4155 41.3636 43.4155 41.3636" stroke="black" stroke-width="0.7" stroke-linecap="round" stroke-linejoin="round"/>
<path d="M43.2988 45.1582C43.2988 45.1582 39.9805 39.0823 40.2694 37.9475C40.2694 37.9475 35.3144 35.7224 37.3743 30.5872C46.6268 29.861 51.6412 32.8453 49.7358 41.5287C49.2612 41.544 48.8005 41.3678 48.4572 41.0398C47.8196 44.0947 44.609 43.0922 43.2988 45.1582Z" fill="#898CA9" stroke="black" stroke-width="0.7" stroke-linecap="round" stroke-linejoin="round"/>
<path d="M39.9453 38.8833C44.9966 36.8352 46.0451 42.0573 41.2016 42.7479L39.9453 38.8833Z" fill="white"/>
<path d="M39.9453 38.8833C44.9966 36.8352 46.0451 42.0573 41.2016 42.7479" stroke="black" stroke-width="0.7" stroke-linecap="round" stroke-linejoin="round"/>
<path d="M41.5959 39.7832C41.7005 39.8004 41.8037 39.8245 41.905 39.8555C42.003 39.896 42.0922 39.9883 42.0823 40.0942C42.0648 40.1751 42.018 40.2466 41.9508 40.2951C41.7915 40.4383 41.6198 40.567 41.4375 40.6796" stroke="black" stroke-width="0.7" stroke-linecap="round" stroke-linejoin="round"/>
<path d="M41.4936 33.1523C41.358 33.6537 41.4403 34.1891 41.72 34.6267C41.9998 35.0643 42.4512 35.3636 42.9632 35.451" stroke="black" stroke-width="0.7" stroke-linecap="round" stroke-linejoin="round"/>
<path d="M46.7797 41.2344C46.4523 41.7705 45.9541 42.1809 45.3652 42.3996" stroke="black" stroke-width="0.7" stroke-linecap="round" stroke-linejoin="round"/>
<path d="M41.0098 50.8965C41.1239 51.196 41.4362 51.3706 41.7512 51.3111" stroke="black" stroke-width="0.7" stroke-linecap="round" stroke-linejoin="round"/>
<path d="M39.7559 106.312C40.0943 107.319 40.9416 108.071 41.9815 108.286" stroke="black" stroke-width="0.7" stroke-linecap="round" stroke-linejoin="round"/>
<path d="M60.8242 139.576L61.8844 140.618" stroke="black" stroke-width="0.7" stroke-linecap="round" stroke-linejoin="round"/>
<path d="M39.0118 157.254L41.2711 159.302C38.9128 159.42 36.5489 159.362 34.1992 159.128" stroke="black" stroke-width="0.7" stroke-linecap="round" stroke-linejoin="round"/>
<path d="M74.2978 159.365L71.8105 161.416C72.7971 161.04 73.8611 160.913 74.9086 161.045" stroke="black" stroke-width="0.7" stroke-linecap="round" stroke-linejoin="round"/>
<ellipse cx="187.971" cy="106.759" rx="15.5351" ry="15.5893" fill="white"/>
<mask id="mask9_295_150426" style="mask-type:luminance" maskUnits="userSpaceOnUse" x="172" y="91" width="32" height="32">
<ellipse cx="187.971" cy="106.759" rx="15.5351" ry="15.5893" fill="white"/>
</mask>
<g mask="url(#mask9_295_150426)">
<path d="M188.608 100.661L188.108 97.8497C188.108 97.8497 183.148 95.7367 181.776 102.568C180.404 109.399 184.573 109.24 181.249 112.258C177.924 115.277 174.125 119.407 177.845 121.79C181.565 124.173 196.921 120.281 196.921 120.281L194.151 110.052L188.608 100.661Z" fill="#898CA9" stroke="black" stroke-width="0.7" stroke-linecap="round" stroke-linejoin="round"/>
<path d="M187.318 98.1202C187.053 98.4995 186.807 98.892 186.582 99.2961C184.245 103.505 187.766 103.948 188.995 107.2C189.542 108.647 189.637 110.648 188.553 113.791C185.404 122.926 187.185 127.83 197.502 122.691C204.732 119.09 193.756 94.7841 187.318 98.1202Z" fill="#898CA9" stroke="black" stroke-width="0.7" stroke-linecap="round" stroke-linejoin="round"/>
<path d="M190.289 114.932L189.189 105.852L184.564 107.511L183.537 115.516" fill="white"/>
<mask id="mask10_295_150426" style="mask-type:luminance" maskUnits="userSpaceOnUse" x="183" y="105" width="8" height="11">
<path fill-rule="evenodd" clip-rule="evenodd" d="M190.291 114.932L189.191 105.852L184.566 107.511L183.539 115.516" fill="white"/>
</mask>
<g mask="url(#mask10_295_150426)">
<path d="M184.219 114.407C185.525 112.197 186.225 110.941 186.225 110.941L184.149 110.373C184.149 110.373 182.912 116.617 184.219 114.407Z" fill="white"/>
</g>
<path d="M190.289 114.932L189.189 105.852L184.564 107.511L183.537 115.516" stroke="black" stroke-width="0.7" stroke-linecap="round" stroke-linejoin="round"/>
<path d="M187.724 105.851C187.873 105.72 188.031 105.599 188.197 105.491C189.457 104.665 190.916 104.667 191.455 105.496C191.994 106.325 191.409 107.666 190.149 108.492C189.849 108.689 189.525 108.845 189.184 108.956" fill="white"/>
<path d="M187.724 105.851C187.873 105.72 188.031 105.599 188.197 105.491C189.457 104.665 190.916 104.667 191.455 105.496C191.994 106.325 191.409 107.666 190.149 108.492C189.849 108.689 189.525 108.845 189.184 108.956" stroke="black" stroke-width="0.7" stroke-linecap="round" stroke-linejoin="round"/>
<path d="M188.719 106.579C187.489 103.327 184.246 103.504 186.582 99.2949C185.478 99.5385 184.66 100.018 183.843 101.27L182.277 104.972C181.8 106.098 181.824 107.373 182.342 108.481C182.861 109.588 183.825 110.423 184.996 110.777L186.331 111.178" fill="white"/>
<mask id="mask11_295_150426" style="mask-type:luminance" maskUnits="userSpaceOnUse" x="181" y="99" width="8" height="13">
<path fill-rule="evenodd" clip-rule="evenodd" d="M188.717 106.579C187.487 103.327 184.244 103.504 186.58 99.2949C185.476 99.5385 184.658 100.018 183.841 101.27L182.275 104.972C181.798 106.098 181.822 107.373 182.34 108.481C182.859 109.588 183.823 110.423 184.994 110.777L186.329 111.178" fill="white"/>
</mask>
<g mask="url(#mask11_295_150426)">
<path d="M183.321 104.47C183.158 104.434 183.055 104.273 183.091 104.11L183.199 103.611C183.216 103.533 183.264 103.464 183.331 103.421C183.398 103.378 183.48 103.363 183.558 103.38C183.721 103.416 183.824 103.577 183.788 103.74L183.68 104.239C183.663 104.317 183.616 104.385 183.549 104.429C183.481 104.472 183.399 104.487 183.321 104.47Z" fill="black"/>
<path d="M184.429 104.068C184.066 104.904 183.961 105.152 183.961 105.152C182.505 104.819 183.602 106.375 183.602 106.375" stroke="black" stroke-width="0.7" stroke-linecap="round" stroke-linejoin="round"/>
<path d="M184.451 106.762C184.319 107.048 184.004 107.201 183.697 107.128" stroke="black" stroke-width="0.7" stroke-linecap="round" stroke-linejoin="round"/>
<path d="M186.137 104.845C185.975 104.809 185.872 104.648 185.907 104.485L186.016 103.986C186.032 103.908 186.08 103.839 186.147 103.796C186.214 103.753 186.296 103.738 186.374 103.755C186.537 103.791 186.64 103.952 186.604 104.115L186.496 104.614C186.479 104.692 186.432 104.76 186.365 104.804C186.297 104.847 186.216 104.862 186.137 104.845Z" fill="black"/>
<path d="M183.636 102.668C182.997 102.712 183.051 103.042 183.452 103.04C183.853 103.038 184.053 102.638 183.636 102.668Z" fill="black"/>
<path d="M186.512 103.033C187.075 103.341 186.889 103.618 186.525 103.449C186.161 103.28 186.145 102.832 186.512 103.033Z" fill="black"/>
</g>
<path d="M188.719 106.579C187.489 103.327 184.246 103.504 186.582 99.2949C185.478 99.5385 184.66 100.018 183.843 101.27L182.277 104.972C181.8 106.098 181.824 107.373 182.342 108.481C182.861 109.588 183.825 110.423 184.996 110.777L186.331 111.178" stroke="black" stroke-width="0.7" stroke-linecap="round" stroke-linejoin="round"/>
<path d="M181.393 138.196L182.15 117.443L181.393 116.877L178.446 118.528C177.276 119.185 176.552 120.423 176.553 121.765V139.394L181.393 138.196Z" fill="white"/>
<path fill-rule="evenodd" clip-rule="evenodd" d="M181.393 138.196L182.15 117.443L181.393 116.877L178.446 118.528C177.276 119.185 176.552 120.423 176.553 121.765V139.394L181.393 138.196Z" stroke="black" stroke-width="0.7" stroke-linecap="round" stroke-linejoin="round"/>
<path d="M178.591 121.715C177.646 124.017 177.17 126.668 178.689 128.544C181.957 132.581 181.392 138.194 181.392 138.194L194.403 144.628L195.471 143.429C195.471 143.429 194.949 119.535 195.766 115.939C195.766 115.939 193.294 111.513 192.391 111.703C192.174 111.749 181.392 116.875 181.392 116.875" fill="white"/>
<path d="M178.591 121.715C177.646 124.017 177.17 126.668 178.689 128.544C181.957 132.581 181.392 138.194 181.392 138.194L194.403 144.628L195.471 143.429C195.471 143.429 194.949 119.535 195.766 115.939C195.766 115.939 193.294 111.513 192.391 111.703C192.174 111.749 181.392 116.875 181.392 116.875" stroke="black" stroke-width="0.7" stroke-linecap="round" stroke-linejoin="round"/>
<path d="M189.762 141.317L192.585 140.16L201.255 126.527L195.767 115.941L194.83 113.015L193.04 111.652C194.563 111.528 196.049 112.165 197.009 113.355L207.603 126.464L196.304 141.487L194.622 143.479L192.478 142.62L189.762 141.317Z" fill="white"/>
<path fill-rule="evenodd" clip-rule="evenodd" d="M189.762 141.317L192.585 140.16L201.255 126.527L195.767 115.941L194.83 113.015L193.04 111.652C194.563 111.528 196.049 112.165 197.009 113.355L207.603 126.464L196.304 141.487L194.622 143.479L192.478 142.62L189.762 141.317Z" stroke="black" stroke-width="0.7" stroke-linecap="round" stroke-linejoin="round"/>
<path d="M190.629 118.327L197.828 126.403L192.986 135.768C193.154 137.602 198.915 139.866 198.915 139.866L206.564 129.2C207.889 127.351 207.77 124.835 206.276 123.119L197.502 113.05C196.388 111.77 194.663 111.202 193.007 111.569L192.392 111.705" fill="white"/>
<path d="M190.629 118.327L197.828 126.403L192.986 135.768C193.154 137.602 198.915 139.866 198.915 139.866L206.564 129.2C207.889 127.351 207.77 124.835 206.276 123.119L197.502 113.05C196.388 111.77 194.663 111.202 193.007 111.569L192.392 111.705" stroke="black" stroke-width="0.7" stroke-linecap="round" stroke-linejoin="round"/>
<path d="M193.969 107.102C194.5 107.584 194.893 108.199 195.106 108.884" stroke="black" stroke-width="0.7" stroke-linecap="round" stroke-linejoin="round"/>
<path d="M189.844 105.961C190.002 105.944 190.179 105.931 190.303 106.03C190.428 106.129 190.413 106.383 190.255 106.403" stroke="black" stroke-width="0.7" stroke-linecap="round" stroke-linejoin="round"/>
</g>
<ellipse cx="187.971" cy="106.759" rx="15.5351" ry="15.5893" stroke="black" stroke-width="0.7" stroke-linecap="round" stroke-linejoin="round"/>
<ellipse cx="132.612" cy="32.688" rx="14.0453" ry="14.0943" fill="white"/>
<mask id="mask12_295_150426" style="mask-type:luminance" maskUnits="userSpaceOnUse" x="118" y="18" width="29" height="29">
<ellipse cx="132.612" cy="32.688" rx="14.0453" ry="14.0943" fill="white"/>
</mask>
<g mask="url(#mask12_295_150426)">
<path d="M155.87 61.6907L162.177 61.1889C162.177 61.1889 141.329 42.2596 140.751 41.9383C140.173 41.617 136.867 45.6179 136.867 45.6179L137.364 51.3577L139.101 52.4033L152.396 63.3949" fill="white"/>
<path d="M155.87 61.6907L162.177 61.1889C162.177 61.1889 141.329 42.2596 140.751 41.9383C140.173 41.617 136.867 45.6179 136.867 45.6179L137.364 51.3577L139.101 52.4033L152.396 63.3949" stroke="black" stroke-width="0.7" stroke-linecap="round" stroke-linejoin="round"/>
<path d="M140.752 41.9385C140.752 41.9385 134.634 37.9736 123.707 40.1797C121.977 40.529 120.704 42.0195 120.582 43.7863L118.879 68.5385L143.498 64.3078L141.799 50.4668" fill="white"/>
<mask id="mask13_295_150426" style="mask-type:luminance" maskUnits="userSpaceOnUse" x="118" y="39" width="26" height="30">
<path fill-rule="evenodd" clip-rule="evenodd" d="M140.752 41.9385C140.752 41.9385 134.634 37.9736 123.707 40.1797C121.977 40.529 120.704 42.0195 120.582 43.7863L118.879 68.5385L143.498 64.3078L141.799 50.4668" fill="white"/>
</mask>
<g mask="url(#mask13_295_150426)">
<ellipse cx="132.491" cy="40.1091" rx="3.42587" ry="5.38991" transform="rotate(-60.8232 132.491 40.1091)" fill="white" stroke="black" stroke-width="0.7" stroke-linecap="round" stroke-linejoin="round"/>
</g>
<path d="M140.752 41.9385C140.752 41.9385 134.634 37.9736 123.707 40.1797C121.977 40.529 120.704 42.0195 120.582 43.7863L118.879 68.5385L143.498 64.3078L141.799 50.4668" stroke="black" stroke-width="0.7" stroke-linecap="round" stroke-linejoin="round"/>
<path d="M127.508 32.9408C127.626 33.1747 128.908 39.7715 128.908 39.7715C128.908 39.7715 131.617 43.3424 134.688 43.046C137.258 42.798 136.313 40.9221 136.313 40.9221L133.987 31.8516L127.508 32.9408Z" fill="white"/>
<mask id="mask14_295_150426" style="mask-type:luminance" maskUnits="userSpaceOnUse" x="127" y="31" width="10" height="13">
<path fill-rule="evenodd" clip-rule="evenodd" d="M127.506 32.9408C127.624 33.1747 128.906 39.7715 128.906 39.7715C128.906 39.7715 131.615 43.3424 134.686 43.046C137.256 42.798 136.311 40.9221 136.311 40.9221L133.985 31.8516L127.506 32.9408Z" fill="white"/>
</mask>
<g mask="url(#mask14_295_150426)">
<path d="M131.984 35.6312C135.026 41.659 136.474 40.5013 136.474 40.5013L135.556 32.0586L129.424 32.8962" fill="white"/>
</g>
<path fill-rule="evenodd" clip-rule="evenodd" d="M127.508 32.9408C127.626 33.1747 128.908 39.7715 128.908 39.7715C128.908 39.7715 131.617 43.3424 134.688 43.046C137.258 42.798 136.313 40.9221 136.313 40.9221L133.987 31.8516L127.508 32.9408Z" stroke="black" stroke-width="0.7" stroke-linecap="round" stroke-linejoin="round"/>
<path d="M131.985 35.6316C134.605 35.4901 137.828 35.0444 137.954 33.7258C138.325 29.8513 133.891 22.8223 133.891 22.8223L129.281 26.4623L126.713 31.8343L127.755 33.615" fill="white"/>
<path d="M131.985 35.6316C134.605 35.4901 137.828 35.0444 137.954 33.7258C138.325 29.8513 133.891 22.8223 133.891 22.8223L129.281 26.4623L126.713 31.8343L127.755 33.615" stroke="black" stroke-width="0.7" stroke-linecap="round" stroke-linejoin="round"/>
<path d="M127.973 32.4974C129.14 31.5981 129.66 29.3313 129.129 28.541C129.129 28.541 136.636 24.5821 137.105 21.0631C137.573 17.5441 131.277 19.1965 128.323 24.3506C128.323 24.3506 129.755 20.9066 127.031 23.2094C124.308 25.5122 124.417 28.3913 124.417 28.3913C124.417 28.3913 123.193 31.9958 128.04 35.8138L127.973 32.4974Z" fill="#898CA9" stroke="black" stroke-width="0.7" stroke-linecap="round" stroke-linejoin="round"/>
<path d="M129.773 30.9582C125.809 27.7734 124.48 32.6829 128.069 34.4562C128.245 34.5448 128.426 34.6225 128.612 34.689" fill="white"/>
<path d="M129.773 30.9582C125.809 27.7734 124.48 32.6829 128.069 34.4562C128.245 34.5448 128.426 34.6225 128.612 34.689" stroke="black" stroke-width="0.7" stroke-linecap="round" stroke-linejoin="round"/>
<path d="M122.179 40.8613L101.572 55.1492C96.809 58.0057 96.7469 63.0382 101.466 65.9671L111.27 74.4635C111.27 74.4635 115.373 69.2616 116.415 67.6155L110.51 61.4329C110.51 61.4329 120.132 54.2949 123.622 51.786" fill="white"/>
<path d="M122.179 40.8613L101.572 55.1492C96.809 58.0057 96.7469 63.0382 101.466 65.9671L111.27 74.4635C111.27 74.4635 115.373 69.2616 116.415 67.6155L110.51 61.4329C110.51 61.4329 120.132 54.2949 123.622 51.786" stroke="black" stroke-width="0.7" stroke-linecap="round" stroke-linejoin="round"/>
<path d="M135.995 28.5967C136.093 28.5552 136.169 28.4751 136.207 28.3754C136.244 28.2756 136.238 28.1649 136.191 28.0693L135.889 27.4663C135.783 27.2667 135.539 27.1848 135.334 27.2797C135.236 27.3212 135.159 27.4012 135.122 27.501C135.085 27.6008 135.09 27.7115 135.137 27.8071L135.44 28.41C135.546 28.6097 135.789 28.6916 135.995 28.5967Z" fill="black"/>
<path d="M134.77 28.8516C135.273 29.6113 135.419 29.8367 135.419 29.8367C136.795 29.255 135.987 30.9791 135.987 30.9791" stroke="black" stroke-width="0.7" stroke-linecap="round" stroke-linejoin="round"/>
<path d="M135.217 31.5078C135.397 31.7667 135.734 31.8626 136.023 31.737" stroke="black" stroke-width="0.7" stroke-linecap="round" stroke-linejoin="round"/>
<path d="M133.536 29.5869C133.634 29.5454 133.71 29.4654 133.748 29.3656C133.785 29.2658 133.779 29.1551 133.732 29.0595L133.43 28.4566C133.324 28.2569 133.08 28.175 132.875 28.2699C132.777 28.3114 132.7 28.3915 132.663 28.4912C132.626 28.591 132.631 28.7017 132.678 28.7973L132.981 29.4003C133.087 29.5999 133.33 29.6819 133.536 29.5869Z" fill="black"/>
<path d="M135.007 26.3963C135.88 26.2611 135.868 26.754 135.328 26.8724C134.788 26.9907 134.436 26.4846 135.007 26.3963Z" fill="black"/>
<path d="M132.461 27.3913C131.801 27.9515 132.138 28.2487 132.575 27.9241C133.011 27.5995 132.892 27.0253 132.461 27.3913Z" fill="black"/>
<path d="M133.685 21.6875C133.232 22.6601 132.418 23.4077 131.625 24.1283" stroke="black" stroke-width="0.7" stroke-linecap="round" stroke-linejoin="round"/>
<path d="M127.928 31.5625C127.804 31.5711 127.671 31.5832 127.575 31.6625C127.478 31.7419 127.451 31.9147 127.554 31.9853" stroke="black" stroke-width="0.7" stroke-linecap="round" stroke-linejoin="round"/>
</g>
<ellipse cx="132.612" cy="32.688" rx="14.0453" ry="14.0943" stroke="black" stroke-width="0.7" stroke-linecap="round" stroke-linejoin="round"/>
<defs>
<linearGradient id="paint0_linear_295_150426" x1="10.5859" y1="90" x2="190.586" y2="90" gradientUnits="userSpaceOnUse">
<stop stop-color="#FFF58B"/>
<stop offset="0.000100017" stop-color="#EBEBEB"/>
<stop offset="1" stop-color="#A4FFDA"/>
</linearGradient>
<linearGradient id="paint1_linear_295_150426" x1="23.2985" y1="34.5759" x2="20.7374" y2="26.178" gradientUnits="userSpaceOnUse">
<stop offset="0.0014" stop-color="#FF458B"/>
<stop offset="0.9609" stop-color="#8F38F6"/>
</linearGradient>
</defs>
</svg>
