<svg width="95" height="106" viewBox="0 0 95 106" fill="none" xmlns="http://www.w3.org/2000/svg">
<path d="M60.2291 15.6543L6.90705 39.3121C5.40407 39.9789 4.72343 41.7443 5.38691 43.2551L22.8617 83.0473C23.1775 83.7715 23.7691 84.34 24.5054 84.6268C25.2416 84.9136 26.0618 84.8951 26.7844 84.5754L61.6415 69.1101C63.8293 70.2695 66.3238 71.5894 68.1365 72.5478C68.9742 72.9907 69.8874 72.118 69.5051 71.2476L67.4372 66.5387L80.1065 60.9176C81.6094 60.2508 82.2901 58.4854 81.6266 56.9746L64.1519 17.1824C63.836 16.4582 63.2444 15.8897 62.5082 15.6029C61.7719 15.3161 60.9517 15.3346 60.2291 15.6543Z" fill="#AD66FF" stroke="#906EE3" stroke-width="0.4" stroke-linecap="round" stroke-linejoin="round"/>
<path d="M26.9626 53.1367L25.0264 56.3348" stroke="#1B1B1B" stroke-width="0.4" stroke-linecap="round" stroke-linejoin="round"/>
<path d="M69.6482 56.0625C69.0975 57.3653 68.3533 58.5776 67.4409 59.6584" stroke="#1B1B1B" stroke-width="0.4" stroke-linecap="round" stroke-linejoin="round"/>
<path d="M79.1439 23.4297L78.7575 23.7414L78.5532 23.8333L79.9702 25.8047L80.557 25.0674" fill="#1B1B1B"/>
<path d="M79.1439 23.4297L78.7575 23.7414L78.5532 23.8333L79.9702 25.8047L80.557 25.0674" stroke="#1B1B1B" stroke-width="0.4" stroke-linecap="round" stroke-linejoin="round"/>
<path d="M78.9007 23.6939L78.7575 23.7418L78.5532 23.8336L82.2481 15.1562H82.4673L83.0126 17.0345" fill="#1B1B1B"/>
<path d="M78.9007 23.6939L78.7575 23.7418L78.5532 23.8336L82.2481 15.1562H82.4673L83.0126 17.0345" stroke="#1B1B1B" stroke-width="0.4" stroke-linecap="round" stroke-linejoin="round"/>
<path d="M78.7578 23.7418L81.0091 26.9414L84.7189 18.3559L82.4676 15.1562L78.7578 23.7418Z" fill="#1B1B1B"/>
<mask id="mask0_267_78375" style="mask-type:luminance" maskUnits="userSpaceOnUse" x="78" y="15" width="7" height="12">
<path fill-rule="evenodd" clip-rule="evenodd" d="M78.7578 23.7418L81.0091 26.9414L84.7189 18.3559L82.4676 15.1562L78.7578 23.7418Z" fill="white"/>
</mask>
<g mask="url(#mask0_267_78375)">
<path d="M80.5574 18.8771C82.1636 18.5013 83.3093 18.6436 83.3093 18.6436L82.8585 20.7211C82.8585 20.7211 81.7458 21.9474 81.7385 22.025C81.7312 22.1026 80.2949 23.5308 80.2949 23.5308C80.2949 23.5308 79.5627 23.8335 79.0582 23.8335C78.5536 23.8335 78.3799 23.1893 78.3799 23.1893L79.5555 20.5969" fill="#1B1B1B"/>
<path d="M80.5574 18.8771C82.1636 18.5013 83.3093 18.6436 83.3093 18.6436L82.8585 20.7211C82.8585 20.7211 81.7458 21.9474 81.7385 22.025C81.7312 22.1026 80.2949 23.5308 80.2949 23.5308C80.2949 23.5308 79.5627 23.8335 79.0582 23.8335C78.5536 23.8335 78.3799 23.1893 78.3799 23.1893L79.5555 20.5969" stroke="#1B1B1B" stroke-width="0.4" stroke-linecap="round" stroke-linejoin="round"/>
</g>
<path fill-rule="evenodd" clip-rule="evenodd" d="M78.7578 23.7418L81.0091 26.9414L84.7189 18.3559L82.4676 15.1562L78.7578 23.7418V23.7418Z" stroke="#1B1B1B" stroke-width="0.4" stroke-linecap="round" stroke-linejoin="round"/>
<path d="M79.6924 33.7596C79.6924 33.7596 82.3567 27.6647 82.6112 26.9408C82.8657 26.217 83.893 21.6831 83.893 21.6831C83.893 21.6831 83.7332 18.6804 83.3091 18.6432C82.885 18.6061 80.2978 18.9773 80.0858 18.866C79.8737 18.7546 79.4964 19.7036 80.2175 20.0377C80.9385 20.3718 81.5018 20.2394 81.5018 20.2394C81.5018 20.2394 79.555 21.1357 79.3526 21.264C78.8507 21.5822 78.6422 22.9716 79.1364 22.7387C79.4508 22.5906 80.1282 22.3924 80.1282 22.3924C80.1282 22.3924 78.8359 23.4874 79.0901 23.965C79.4453 24.6325 80.3101 24.3841 80.3101 24.3841C80.2677 24.8309 77.7773 28.653 77.7773 28.653L79.6924 33.7596Z" fill="white"/>
<mask id="mask1_267_78375" style="mask-type:luminance" maskUnits="userSpaceOnUse" x="77" y="18" width="7" height="16">
<path fill-rule="evenodd" clip-rule="evenodd" d="M79.6924 33.7596C79.6924 33.7596 82.3567 27.6647 82.6112 26.9408C82.8657 26.217 83.893 21.6831 83.893 21.6831C83.893 21.6831 83.7332 18.6804 83.3091 18.6432C82.885 18.6061 80.2978 18.9773 80.0858 18.866C79.8737 18.7546 79.4964 19.7036 80.2175 20.0377C80.9385 20.3718 81.5018 20.2394 81.5018 20.2394C81.5018 20.2394 79.555 21.1357 79.3526 21.264C78.8507 21.5822 78.6422 22.9716 79.1364 22.7387C79.4508 22.5906 80.1282 22.3924 80.1282 22.3924C80.1282 22.3924 78.8359 23.4874 79.0901 23.965C79.4453 24.6325 80.3101 24.3841 80.3101 24.3841C80.2677 24.8309 77.7773 28.653 77.7773 28.653L79.6924 33.7596Z" fill="white"/>
</mask>
<g mask="url(#mask1_267_78375)">
<path d="M79.5996 25.7506C79.9703 24.9279 82.2714 26.5888 83.615 27.6289C84.9585 28.6689 81.6382 28.9794 81.6382 28.9794L80.4799 28.5292" fill="white"/>
</g>
<path fill-rule="evenodd" clip-rule="evenodd" d="M79.6924 33.7596C79.6924 33.7596 82.3567 27.6647 82.6112 26.9408C82.8657 26.217 83.893 21.6831 83.893 21.6831C83.893 21.6831 83.7332 18.6804 83.3091 18.6432C82.885 18.6061 80.2978 18.9773 80.0858 18.866C79.8737 18.7546 79.4964 19.7036 80.2175 20.0377C80.9385 20.3718 81.5018 20.2394 81.5018 20.2394C81.5018 20.2394 79.555 21.1357 79.3526 21.264C78.8507 21.5822 78.6422 22.9716 79.1364 22.7387C79.4508 22.5906 80.1282 22.3924 80.1282 22.3924C80.1282 22.3924 78.8359 23.4874 79.0901 23.965C79.4453 24.6325 80.3101 24.3841 80.3101 24.3841C80.2677 24.8309 77.7773 28.653 77.7773 28.653L79.6924 33.7596Z" stroke="#1B1B1B" stroke-width="0.4" stroke-linecap="round" stroke-linejoin="round"/>
<path d="M46.9809 74.6705L50.6926 96.8231L46.1294 98.5212L39.4668 73.8828L46.9809 74.6705Z" fill="white"/>
<mask id="mask2_267_78375" style="mask-type:luminance" maskUnits="userSpaceOnUse" x="39" y="73" width="12" height="26">
<path fill-rule="evenodd" clip-rule="evenodd" d="M46.9809 74.6705L50.6926 96.8231L46.1294 98.5212L39.4668 73.8828L46.9809 74.6705Z" fill="white"/>
</mask>
<g mask="url(#mask2_267_78375)">
<path d="M41.9272 82.9228C40.4182 83.8987 50.1378 86.9103 50.1378 86.9103L48.6834 82.5312" fill="white"/>
</g>
<path fill-rule="evenodd" clip-rule="evenodd" d="M46.9809 74.6705L50.6926 96.8231L46.1294 98.5212L39.4668 73.8828L46.9809 74.6705V74.6705Z" stroke="#1B1B1B" stroke-width="0.4" stroke-linecap="round" stroke-linejoin="round"/>
<path d="M50.236 93.7578C50.236 93.7578 48.3459 96.358 45.2529 95.0864C45.2529 95.0864 46.0302 98.854 42.9184 100.382C37.477 103.053 40.0976 105 40.0976 105L52.0942 99.2116C53.0485 98.8347 50.236 93.7578 50.236 93.7578Z" fill="#1B1B1B"/>
<mask id="mask3_267_78375" style="mask-type:luminance" maskUnits="userSpaceOnUse" x="39" y="93" width="14" height="12">
<path fill-rule="evenodd" clip-rule="evenodd" d="M50.236 93.7578C50.236 93.7578 48.3459 96.358 45.2529 95.0864C45.2529 95.0864 46.0302 98.854 42.9184 100.382C37.477 103.053 40.0976 105 40.0976 105L52.0942 99.2116C53.0485 98.8347 50.236 93.7578 50.236 93.7578Z" fill="white"/>
</mask>
<g mask="url(#mask3_267_78375)">
<path d="M38.2432 104.506L54.5623 96.6289L54.0359 100.317L40.9806 107.416" fill="#1B1B1B"/>
<path d="M38.2432 104.506L54.5623 96.6289L54.0359 100.317L40.9806 107.416" stroke="#1B1B1B" stroke-width="0.4" stroke-linecap="round" stroke-linejoin="round"/>
</g>
<path fill-rule="evenodd" clip-rule="evenodd" d="M50.236 93.7578C50.236 93.7578 48.3459 96.358 45.2529 95.0864C45.2529 95.0864 46.0302 98.854 42.9184 100.382C37.477 103.053 40.0976 105 40.0976 105L52.0942 99.2116C53.0485 98.8347 50.236 93.7578 50.236 93.7578Z" stroke="#1B1B1B" stroke-width="0.4" stroke-linecap="round" stroke-linejoin="round"/>
<path d="M41.572 82.927C49.7184 85.9729 53.0357 82.164 53.0357 82.164L44.9373 54.7793L34.0889 59.1354L41.572 82.927Z" fill="white" stroke="#1B1B1B" stroke-width="0.4" stroke-linecap="round" stroke-linejoin="round"/>
<path d="M43.5809 64.0977L62.0811 76.396L60.2026 80.9519L37.9028 69.1627L43.5809 64.0977Z" fill="white"/>
<mask id="mask4_267_78375" style="mask-type:luminance" maskUnits="userSpaceOnUse" x="37" y="64" width="26" height="17">
<path fill-rule="evenodd" clip-rule="evenodd" d="M43.5809 64.0977L62.0811 76.396L60.2026 80.9519L37.9028 69.1627L43.5809 64.0977Z" fill="white"/>
</mask>
<g mask="url(#mask4_267_78375)">
<path d="M51.4061 77.1165C51.0837 78.9048 58.5677 73.1157 58.5677 73.1157L55.7182 71.8145" fill="white"/>
</g>
<path fill-rule="evenodd" clip-rule="evenodd" d="M43.5809 64.0977L62.0811 76.396L60.2026 80.9519L37.9028 69.1627L43.5809 64.0977V64.0977Z" stroke="#1B1B1B" stroke-width="0.4" stroke-linecap="round" stroke-linejoin="round"/>
<path d="M59.5609 74.6523C59.5609 74.6523 60.1508 77.8293 57.1304 79.27C57.1304 79.27 59.3143 80.7495 58.2999 84.1079C56.5261 89.9803 59.8535 89.0667 59.8535 89.0667L63.6028 76.7712C63.98 75.8036 59.5609 74.6523 59.5609 74.6523Z" fill="#1B1B1B"/>
<mask id="mask5_267_78375" style="mask-type:luminance" maskUnits="userSpaceOnUse" x="57" y="74" width="7" height="16">
<path fill-rule="evenodd" clip-rule="evenodd" d="M59.5609 74.6523C59.5609 74.6523 60.1508 77.8293 57.1304 79.27C57.1304 79.27 59.3143 80.7495 58.2999 84.1079C56.5261 89.9803 59.8535 89.0667 59.8535 89.0667L63.6028 76.7712C63.98 75.8036 59.5609 74.6523 59.5609 74.6523Z" fill="white"/>
</mask>
<g mask="url(#mask5_267_78375)">
<path d="M58.291 89.8222L63.1298 74.5039L65.8715 78.0358L64.2133 85.8049" fill="#1B1B1B"/>
<path d="M58.291 89.8222L63.1298 74.5039L65.8715 78.0358L64.2133 85.8049" stroke="#1B1B1B" stroke-width="0.4" stroke-linecap="round" stroke-linejoin="round"/>
</g>
<path fill-rule="evenodd" clip-rule="evenodd" d="M59.5609 74.6523C59.5609 74.6523 60.1508 77.8293 57.1304 79.27C57.1304 79.27 59.3143 80.7495 58.2999 84.1079C56.5261 89.9803 59.8535 89.0667 59.8535 89.0667L63.6028 76.7712C63.98 75.8036 59.5609 74.6523 59.5609 74.6523Z" stroke="#1B1B1B" stroke-width="0.4" stroke-linecap="round" stroke-linejoin="round"/>
<path d="M37.6283 67.3621C37.9068 67.2094 38.1595 66.9995 38.4578 66.91C64.6264 59.0585 72.6793 56.2232 58.7216 39.1719L51.1141 41.9545L50.4557 47.5071L32.2441 57.0979L38.1833 67.0588" fill="white"/>
<mask id="mask6_267_78375" style="mask-type:luminance" maskUnits="userSpaceOnUse" x="32" y="39" width="34" height="29">
<path fill-rule="evenodd" clip-rule="evenodd" d="M37.6283 67.3621C37.9068 67.2094 38.1595 66.9995 38.4578 66.91C64.6264 59.0585 72.6793 56.2232 58.7216 39.1719L51.1141 41.9545L50.4557 47.5071L32.2441 57.0979L38.1833 67.0588" fill="white"/>
</mask>
<g mask="url(#mask6_267_78375)">
<path d="M39.1177 60.2824C42.0437 54.0688 47.8957 64.7113 59.0144 60.679C70.1332 56.6468 51.6019 66.8927 51.6019 66.8927L39.8329 64.098" fill="white"/>
<path d="M50.3015 45.9377C48.6773 47.4813 63.7936 46.358 66.0368 49.4364C68.2801 52.5149 66.565 44.5826 66.565 44.5826L59.8705 42.0352" fill="white"/>
</g>
<path d="M37.6283 67.3621C37.9068 67.2094 38.1595 66.9995 38.4578 66.91C64.6264 59.0585 72.6793 56.2232 58.7216 39.1719L51.1141 41.9545L50.4557 47.5071L32.2441 57.0979L38.1833 67.0588" stroke="#1B1B1B" stroke-width="0.4" stroke-linecap="round" stroke-linejoin="round"/>
<path d="M40.7257 44.918C40.7257 44.918 34.8989 47.8317 34.342 47.8994C33.7852 47.9671 30.6308 48.2524 30.1535 48.3539C29.6762 48.4555 25.6154 48.196 25.5358 48.0945C25.4563 47.9929 23.9188 48.5487 26.0269 49.2935C28.135 50.0383 31.0286 50.1482 31.1081 50.4868C31.1877 50.8253 29.1592 51.334 29.1194 51.706C29.0796 52.078 30.7899 51.9002 30.7899 51.9002C30.7899 51.9002 33.8526 51.2828 34.1708 51.1131C34.489 50.9434 42.2879 48.8138 42.2879 48.8138L40.7257 44.918Z" fill="white"/>
<mask id="mask7_267_78375" style="mask-type:luminance" maskUnits="userSpaceOnUse" x="24" y="44" width="19" height="8">
<path fill-rule="evenodd" clip-rule="evenodd" d="M40.7257 44.918C40.7257 44.918 34.8989 47.8317 34.342 47.8994C33.7852 47.9671 30.6308 48.2524 30.1535 48.3539C29.6762 48.4555 25.6154 48.196 25.5358 48.0945C25.4563 47.9929 23.9188 48.5487 26.0269 49.2935C28.135 50.0383 31.0286 50.1482 31.1081 50.4868C31.1877 50.8253 29.1592 51.334 29.1194 51.706C29.0796 52.078 30.7899 51.9002 30.7899 51.9002C30.7899 51.9002 33.8526 51.2828 34.1708 51.1131C34.489 50.9434 42.2879 48.8138 42.2879 48.8138L40.7257 44.918Z" fill="white"/>
</mask>
<g mask="url(#mask7_267_78375)">
<path d="M36.1404 47.1443C34.587 46.9386 36.5584 49.5339 35.956 51.3946C35.4611 52.9235 38.427 51.1152 38.427 51.1152L38.5196 48.8798" fill="white"/>
</g>
<path fill-rule="evenodd" clip-rule="evenodd" d="M40.7257 44.918C40.7257 44.918 34.8989 47.8317 34.342 47.8994C33.7852 47.9671 30.6308 48.2524 30.1535 48.3539C29.6762 48.4555 25.6154 48.196 25.5358 48.0945C25.4563 47.9929 23.9188 48.5487 26.0269 49.2935C28.135 50.0383 31.0286 50.1482 31.1081 50.4868C31.1877 50.8253 29.1592 51.334 29.1194 51.706C29.0796 52.078 30.7899 51.9002 30.7899 51.9002C30.7899 51.9002 33.8526 51.2828 34.1708 51.1131C34.489 50.9434 42.2879 48.8138 42.2879 48.8138L40.7257 44.918Z" stroke="#1B1B1B" stroke-width="0.4" stroke-linecap="round" stroke-linejoin="round"/>
<path d="M35.7172 46.613C34.9018 47.5102 39.1527 53.2803 39.1527 53.2803C39.1527 53.2803 47.7387 49.1924 51.0601 45.5266C54.3816 41.8608 56.8328 28.2351 56.8328 28.2351C56.8328 28.2351 54.4284 27.279 53.7106 27.3343C50.1088 27.6122 45.8251 40.3466 45.8251 40.3466L35.7172 46.613Z" fill="white" stroke="#1B1B1B" stroke-width="0.4" stroke-linecap="round" stroke-linejoin="round"/>
<path d="M51.7524 29.9364C51.003 31.4907 50.5343 33.5283 51.7394 35.374C54.1036 38.9952 48.0195 46.1187 48.0195 46.1187C52.6659 46.5829 63.6067 45.1192 63.6067 45.1192C61.1578 37.8768 66.899 27.8277 66.4902 27.6297C61.8179 25.3664 53.4536 27.3932 53.4536 27.3932" fill="white"/>
<mask id="mask8_267_78375" style="mask-type:luminance" maskUnits="userSpaceOnUse" x="48" y="26" width="19" height="21">
<path fill-rule="evenodd" clip-rule="evenodd" d="M51.7524 29.9364C51.003 31.4907 50.5343 33.5283 51.7394 35.374C54.1036 38.9952 48.0195 46.1187 48.0195 46.1187C52.6659 46.5829 63.6067 45.1192 63.6067 45.1192C61.1578 37.8768 66.899 27.8277 66.4902 27.6297C61.8179 25.3664 53.4536 27.3932 53.4536 27.3932" fill="white"/>
</mask>
<g mask="url(#mask8_267_78375)">
<path d="M55.8166 25.2227C50.8129 31.4319 59.853 33.364 64.8992 25.7552L55.8166 25.2227Z" fill="white"/>
<path d="M55.8166 25.2227C50.8129 31.4319 59.8529 33.364 64.8992 25.7552" stroke="#1B1B1B" stroke-width="0.4" stroke-linecap="round" stroke-linejoin="round"/>
<path d="M56.3639 24.6719C51.3601 30.8811 60.0721 30.4201 65.4465 25.2044L56.3639 24.6719Z" fill="white"/>
<path d="M56.3639 24.6719C51.3601 30.8811 60.0721 30.4201 65.4465 25.2044" stroke="#1B1B1B" stroke-width="0.4" stroke-linecap="round" stroke-linejoin="round"/>
</g>
<path d="M51.7524 29.9364C51.003 31.4907 50.5343 33.5283 51.7394 35.374C54.1036 38.9952 48.0195 46.1187 48.0195 46.1187C52.6659 46.5829 63.6067 45.1192 63.6067 45.1192C61.1578 37.8768 66.899 27.8277 66.4902 27.6297C61.8179 25.3664 53.4536 27.3932 53.4536 27.3932" stroke="#1B1B1B" stroke-width="0.4" stroke-linecap="round" stroke-linejoin="round"/>
<path d="M32.5237 56.9512C20.3502 62.2399 48.8666 79.8783 48.8666 79.8783C56.8322 77.6791 55.6316 71.8076 55.6316 71.8076C55.6316 71.8076 47.5494 62.8398 40.3561 58.6805" fill="white"/>
<path d="M32.5237 56.9512C20.3502 62.2399 48.8666 79.8783 48.8666 79.8783C56.8322 77.6791 55.6316 71.8076 55.6316 71.8076C55.6316 71.8076 47.5494 62.8398 40.3561 58.6805" stroke="#1B1B1B" stroke-width="0.4" stroke-linecap="round" stroke-linejoin="round"/>
<path d="M66.361 27.5685C67.6931 28.0604 73.3274 32.9043 73.3274 32.9043L79.6304 25.498C83.5748 27.8444 82.9045 31.7423 82.9045 31.7423C82.9045 31.7423 76.0166 43.0431 73.3758 43.3225C69.9162 43.6885 62.4654 34.7723 61.0083 32.9835" fill="white"/>
<path d="M66.361 27.5685C67.6931 28.0604 73.3274 32.9043 73.3274 32.9043L79.6304 25.498C83.5748 27.8444 82.9045 31.7423 82.9045 31.7423C82.9045 31.7423 76.0166 43.0431 73.3758 43.3225C69.9162 43.6885 62.4654 34.7723 61.0083 32.9835" stroke="#1B1B1B" stroke-width="0.4" stroke-linecap="round" stroke-linejoin="round"/>
<path d="M57.0962 27.4658L57.7127 21.1016L61.6193 20.9746C60.9278 22.3152 61.588 25.5057 61.9978 26.921" fill="white"/>
<mask id="mask9_267_78375" style="mask-type:luminance" maskUnits="userSpaceOnUse" x="57" y="20" width="5" height="8">
<path fill-rule="evenodd" clip-rule="evenodd" d="M57.0962 27.4658L57.7127 21.1016L61.6193 20.9746C60.9278 22.3152 61.588 25.5057 61.9978 26.921" fill="white"/>
</mask>
<g mask="url(#mask9_267_78375)">
<path d="M66.1329 28.4045C62.2852 26.7898 60.7988 25.8289 59.7019 22.8169C58.3415 19.082 62.5505 21.3825 62.5505 21.3825C62.5505 21.3825 62.9644 21.3705 63.1593 21.7413C63.3542 22.1122 64.8959 25.8832 64.8959 25.8832" fill="white"/>
</g>
<path d="M57.0962 27.4658L57.7127 21.1016L61.6193 20.9746C60.9278 22.3152 61.588 25.5057 61.9978 26.921" stroke="#1B1B1B" stroke-width="0.4" stroke-linecap="round" stroke-linejoin="round"/>
<ellipse cx="50.4504" cy="10.02" rx="8.87121" ry="7.37487" transform="rotate(-20.5606 50.4504 10.02)" fill="#1B1B1B" stroke="#1B1B1B" stroke-width="0.4" stroke-linecap="round" stroke-linejoin="round"/>
<ellipse cx="59.0504" cy="17.9196" rx="5.4216" ry="4.48025" transform="rotate(-20.5447 59.0504 17.9196)" fill="#1B1B1B" stroke="#1B1B1B" stroke-width="0.4" stroke-linecap="round" stroke-linejoin="round"/>
<path d="M61.5099 14.8613C68.0416 21.7641 62.4294 25.5434 59.1986 22.8733L57.5522 19.1295L61.5099 14.8613Z" fill="white"/>
<mask id="mask10_267_78375" style="mask-type:luminance" maskUnits="userSpaceOnUse" x="57" y="14" width="8" height="10">
<path fill-rule="evenodd" clip-rule="evenodd" d="M61.5099 14.8613C68.0416 21.7641 62.4294 25.5434 59.1986 22.8733L57.5522 19.1295L61.5099 14.8613Z" fill="white"/>
</mask>
<g mask="url(#mask10_267_78375)">
<path d="M63.8697 19.5423C63.95 19.5531 64.0313 19.5315 64.0956 19.4824C64.16 19.4332 64.2021 19.3604 64.2128 19.2801L64.2822 18.7675C64.3052 18.6003 64.1885 18.446 64.0213 18.4226C63.941 18.4118 63.8598 18.4334 63.7954 18.4826C63.7311 18.5318 63.6889 18.6046 63.6783 18.6849L63.6089 19.1975C63.5858 19.3647 63.7026 19.519 63.8697 19.5423Z" fill="#1B1B1B"/>
<path d="M63.0878 19.1758C62.912 19.7971 62.8583 19.9796 62.8583 19.9796C63.8062 20.4506 62.5063 20.8119 62.5063 20.8119" stroke="#1B1B1B" stroke-width="0.4" stroke-linecap="round" stroke-linejoin="round"/>
<path d="M61.8606 20.6465C61.8096 20.8638 61.9191 21.0869 62.1223 21.1795" stroke="#1B1B1B" stroke-width="0.4" stroke-linecap="round" stroke-linejoin="round"/>
<path d="M61.9464 19.1908C62.0267 19.2016 62.108 19.18 62.1723 19.1308C62.2367 19.0816 62.2788 19.0088 62.2895 18.9285L62.3589 18.4159C62.3819 18.2487 62.2652 18.0944 62.098 18.0711C62.0177 18.0603 61.9364 18.0818 61.8721 18.131C61.8077 18.1802 61.7656 18.253 61.7549 18.3333L61.6855 18.8459C61.6625 19.0131 61.7792 19.1674 61.9464 19.1908Z" fill="#1B1B1B"/>
<path d="M64.1932 17.7175C64.785 17.9825 64.5696 18.2969 64.1889 18.1555C63.8082 18.0141 63.8066 17.5444 64.1932 17.7175Z" fill="#1B1B1B"/>
<path d="M62.2163 17.3345C61.5755 17.4309 61.6564 17.7594 62.0608 17.7255C62.4652 17.6915 62.6349 17.2716 62.2163 17.3345Z" fill="#1B1B1B"/>
</g>
<path fill-rule="evenodd" clip-rule="evenodd" d="M61.5099 14.8613C68.0416 21.7641 62.4294 25.5434 59.1986 22.8733L57.5522 19.1295L61.5099 14.8613Z" stroke="#1B1B1B" stroke-width="0.4" stroke-linecap="round" stroke-linejoin="round"/>
<path d="M58.242 20.9145L56.3647 18.9204L59.4096 14.3738L61.0423 14.2748C61.0423 14.2748 61.5998 13.8763 61.8072 14.2748" fill="#1B1B1B"/>
<path d="M58.242 20.9145L56.3647 18.9204L59.4096 14.3738L61.0423 14.2748C61.0423 14.2748 61.5998 13.8763 61.8072 14.2748" stroke="#1B1B1B" stroke-width="0.4" stroke-linecap="round" stroke-linejoin="round"/>
<path d="M61.8074 14.2754C62.5257 15.6558 62.7629 18.5781 58.2422 20.9151L61.8074 14.2754Z" fill="#1B1B1B"/>
<path d="M61.8074 14.2754C62.5257 15.6558 62.7629 18.5781 58.2422 20.9151" stroke="#1B1B1B" stroke-width="0.4" stroke-linecap="round" stroke-linejoin="round"/>
<path d="M59.6724 20.3409C55.2489 19.3576 56.436 22.9354 59.4189 22.9702L59.6724 20.3409Z" fill="white"/>
<path d="M59.6724 20.3409C55.2489 19.3576 56.436 22.9354 59.4189 22.9702" stroke="#1B1B1B" stroke-width="0.4" stroke-linecap="round" stroke-linejoin="round"/>
<ellipse cx="58.0158" cy="22.971" rx="0.874717" ry="0.879215" fill="#1B1B1B" stroke="#1B1B1B" stroke-width="0.4" stroke-linecap="round" stroke-linejoin="round"/>
<path d="M16.3845 64.9746L15.047 64.9577L13.868 64.9429C13.3022 64.9343 12.8505 64.4687 12.859 63.9029C12.8617 63.6312 12.9722 63.3717 13.1662 63.1815C13.3603 62.9913 13.6219 62.886 13.8936 62.8887L16.4101 62.9204C16.9759 62.929 17.4276 63.3946 17.4192 63.9603C17.4165 64.232 17.306 64.4916 17.1119 64.6818C16.9179 64.872 16.6562 64.9773 16.3845 64.9746Z" fill="white" stroke="#1B1B1B" stroke-width="0.4" stroke-linecap="round" stroke-linejoin="round"/>
<path d="M23.2208 71.5418C22.6314 72.7645 21.3345 73.3569 20.3243 72.8648L11.4698 68.5522C10.4596 68.0602 10.1184 66.6701 10.7079 65.4474C11.2974 64.2246 12.5942 63.6323 13.6044 64.1243L15.1097 64.8575L22.4589 68.4369C23.4691 68.929 23.8103 70.3191 23.2208 71.5418Z" fill="white"/>
<mask id="mask11_267_78375" style="mask-type:luminance" maskUnits="userSpaceOnUse" x="10" y="63" width="14" height="11">
<path fill-rule="evenodd" clip-rule="evenodd" d="M23.2208 71.5418C22.6314 72.7645 21.3345 73.3569 20.3243 72.8648L11.4698 68.5522C10.4596 68.0602 10.1184 66.6701 10.7079 65.4474C11.2974 64.2246 12.5942 63.6323 13.6044 64.1243L15.1097 64.8575L22.4589 68.4369C23.4691 68.929 23.8103 70.3191 23.2208 71.5418Z" fill="white"/>
</mask>
<g mask="url(#mask11_267_78375)">
<path d="M18.2665 64.0624C8.7102 65.8717 18.9285 71.971 18.9285 71.971L10.9965 73.8225L7.35938 67.5215L14.3424 61.8145" fill="white"/>
</g>
<path fill-rule="evenodd" clip-rule="evenodd" d="M23.2208 71.5418V71.5418C22.6314 72.7645 21.3345 73.3569 20.3243 72.8648L11.4698 68.5522C10.4596 68.0602 10.1184 66.6701 10.7079 65.4474V65.4474C11.2974 64.2246 12.5942 63.6323 13.6044 64.1243L15.1097 64.8575L22.4589 68.4369C23.4691 68.929 23.8103 70.3191 23.2208 71.5418Z" stroke="#1B1B1B" stroke-width="0.4" stroke-linecap="round" stroke-linejoin="round"/>
<path d="M5.67774 62.828L5.12697 64.2529C5.04927 64.4555 4.89403 64.6188 4.69561 64.7066C4.49719 64.7945 4.27194 64.7996 4.06973 64.7209L3.68749 64.5716C3.26629 64.4059 3.05821 63.931 3.22189 63.509L3.32358 63.2459L3.77266 62.0841C3.85036 61.8815 4.0056 61.7182 4.20402 61.6303C4.40244 61.5425 4.62768 61.5374 4.8299 61.6161L5.21214 61.7653C5.63333 61.9311 5.84142 62.406 5.67774 62.828Z" fill="white" stroke="#1B1B1B" stroke-width="0.4" stroke-linecap="round" stroke-linejoin="round"/>
<ellipse cx="17.4036" cy="44.4557" rx="3.80601" ry="12.9562" transform="rotate(-64.0098 17.4036 44.4557)" fill="url(#paint0_linear_267_78375)"/>
<path d="M5.81079 58.707C5.26718 61.0466 4.41145 63.3025 3.2666 65.4139C4.16862 65.9415 5.13239 66.4579 6.14476 66.951C8.02174 67.8652 9.85773 68.5978 11.54 69.1305C12.6328 67.0909 13.8274 65.1075 15.1191 63.1878C13.4233 62.6178 11.7668 61.937 10.1604 61.1496C8.66265 60.4238 7.21013 59.6081 5.81079 58.707Z" fill="#1B1B1B" stroke="#1B1B1B" stroke-width="0.4" stroke-linecap="round" stroke-linejoin="round"/>
<path d="M3.2664 65.4141C2.75475 66.3596 2.19522 67.2784 1.59001 68.1669C0.183588 70.2388 0.630029 73.053 2.61844 74.5684C4.97967 76.368 8.3861 75.5313 9.66197 72.8431C10.1992 71.7111 10.8267 70.4547 11.5397 69.1306C9.85753 68.5979 8.02153 67.8653 6.14455 66.9511C5.13219 66.458 4.16842 65.9416 3.2664 65.4141Z" fill="white" stroke="#1B1B1B" stroke-width="0.4" stroke-linecap="round" stroke-linejoin="round"/>
<path d="M5.69531 39.2812C6.39599 44.0651 6.72948 48.1217 6.64543 51.7C6.58556 54.2488 6.31348 56.5549 5.81064 58.7073C7.20999 59.6084 8.6625 60.4241 10.1603 61.1499C11.7667 61.9373 13.4232 62.6181 15.119 63.1881C16.3855 61.3168 17.7932 59.4694 19.3312 57.7787C22.4119 54.3922 26.0153 51.6366 30.0574 50.5908L5.69531 39.2812Z" fill="white"/>
<path fill-rule="evenodd" clip-rule="evenodd" d="M5.69531 39.2812C6.39599 44.0651 6.72948 48.1217 6.64543 51.7C6.58556 54.2488 6.31348 56.5549 5.81064 58.7073C7.20999 59.6084 8.6625 60.4241 10.1603 61.1499C11.7667 61.9373 13.4232 62.6181 15.119 63.1881C16.3855 61.3168 17.7932 59.4694 19.3312 57.7787C22.4119 54.3922 26.0153 51.6366 30.0574 50.5908L5.69531 39.2812Z" stroke="#1B1B1B" stroke-width="0.4" stroke-linecap="round" stroke-linejoin="round"/>
<ellipse cx="17.4034" cy="44.4556" rx="5.13556" ry="14.5353" transform="rotate(-63.9987 17.4034 44.4556)" fill="#1B1B1B" stroke="#1B1B1B" stroke-width="0.4" stroke-linecap="round" stroke-linejoin="round"/>
<ellipse cx="17.4036" cy="44.4557" rx="3.80601" ry="12.9562" transform="rotate(-64.0098 17.4036 44.4557)" fill="white"/>
<mask id="mask12_267_78375" style="mask-type:luminance" maskUnits="userSpaceOnUse" x="5" y="37" width="25" height="15">
<ellipse cx="17.4036" cy="44.4538" rx="3.80601" ry="12.9562" transform="rotate(-64.0098 17.4036 44.4538)" fill="white"/>
</mask>
<g mask="url(#mask12_267_78375)">
<path d="M21.3947 51.525L19.9031 54.6191C18.4341 57.6664 14.7855 58.9397 11.7538 57.4631C8.72213 55.9865 7.45535 52.3191 8.9244 49.2719L9.64808 47.7707L10.416 46.1778C11.885 43.1305 15.5336 41.8572 18.5653 43.3338C21.597 44.8104 22.8638 48.4777 21.3947 51.525Z" fill="white"/>
<mask id="mask13_267_78375" style="mask-type:luminance" maskUnits="userSpaceOnUse" x="8" y="42" width="15" height="17">
<path fill-rule="evenodd" clip-rule="evenodd" d="M21.3947 51.525L19.9031 54.6191C18.4341 57.6664 14.7855 58.9397 11.7538 57.4631C8.72213 55.9865 7.45535 52.3191 8.9244 49.2719L9.64808 47.7707L10.416 46.1778C11.885 43.1305 15.5336 41.8572 18.5653 43.3338C21.597 44.8104 22.8638 48.4777 21.3947 51.525Z" fill="white"/>
</mask>
<g mask="url(#mask13_267_78375)">
<path d="M12.2799 42.3926C12.8971 49.0397 24.7652 52.1889 24.7652 52.1889L9.64752 47.7705L8.92969 42.9285L11.6916 41.3516" fill="white"/>
</g>
<path fill-rule="evenodd" clip-rule="evenodd" d="M21.3947 51.525L19.9031 54.6191C18.4341 57.6664 14.7855 58.9397 11.7538 57.4631V57.4631C8.72213 55.9865 7.45535 52.3191 8.9244 49.2719L9.64808 47.7707L10.416 46.1778C11.885 43.1305 15.5336 41.8572 18.5653 43.3338V43.3338C21.597 44.8104 22.8638 48.4777 21.3947 51.525Z" stroke="#1B1B1B" stroke-width="0.4" stroke-linecap="round" stroke-linejoin="round"/>
</g>
<ellipse cx="17.4036" cy="44.4557" rx="3.80601" ry="12.9562" transform="rotate(-64.0098 17.4036 44.4557)" stroke="#1B1B1B" stroke-width="0.4" stroke-linecap="round" stroke-linejoin="round"/>
<path d="M10.8438 54.3262C11.4143 55.0778 11.8159 55.9437 12.0214 56.8646" stroke="#1B1B1B" stroke-width="0.4" stroke-linecap="round" stroke-linejoin="round"/>
<path d="M32.1739 14.9414H10.7776C10.1729 14.943 9.684 15.4344 9.68555 16.0391V25.8827C9.68399 26.4873 10.1729 26.9788 10.7776 26.9803H24.7645C25.3283 27.6957 25.9713 28.5106 26.4388 29.1026C26.6548 29.3762 27.0902 29.2191 27.0902 28.8699V26.9803H32.1739C32.7786 26.9788 33.2675 26.4873 33.2659 25.8827V16.0391C33.2675 15.4344 32.7786 14.943 32.1739 14.9414Z" fill="white"/>
<mask id="mask14_267_78375" style="mask-type:luminance" maskUnits="userSpaceOnUse" x="9" y="14" width="25" height="16">
<path fill-rule="evenodd" clip-rule="evenodd" d="M32.1739 14.9414H10.7776C10.1729 14.943 9.684 15.4344 9.68555 16.0391V25.8827C9.68399 26.4873 10.1729 26.9788 10.7776 26.9803H24.7645C25.3283 27.6957 25.9713 28.5106 26.4388 29.1026C26.6548 29.3762 27.0902 29.2191 27.0902 28.8699V26.9803H32.1739C32.7786 26.9788 33.2675 26.4873 33.2659 25.8827V16.0391C33.2675 15.4344 32.7786 14.943 32.1739 14.9414Z" fill="white"/>
</mask>
<g mask="url(#mask14_267_78375)">
<path d="M33.2656 13.2404C33.3489 30.8271 6.58936 25.8844 6.58936 25.8844C6.58936 25.8844 10.8206 31.4619 11.3924 31.9491C11.9641 32.4363 37.5802 32.8961 37.5802 32.8961L35.0643 12.5508" fill="#1B1B1B"/>
<path d="M33.2657 13.2404C33.3489 30.8271 6.58936 25.8844 6.58936 25.8844C6.58936 25.8844 10.8206 31.4619 11.3924 31.9491C11.9641 32.4363 37.5802 32.8961 37.5802 32.8961L35.0643 12.5508" stroke="#1B1B1B" stroke-width="0.4" stroke-linecap="round" stroke-linejoin="round"/>
</g>
<path fill-rule="evenodd" clip-rule="evenodd" d="M32.1739 14.9414H10.7776C10.1729 14.943 9.684 15.4344 9.68555 16.0391V25.8826C9.68399 26.4873 10.1729 26.9788 10.7776 26.9803H24.7645C25.3283 27.6957 25.9713 28.5106 26.4388 29.1026C26.6548 29.3762 27.0901 29.2191 27.0901 28.8699V26.9803H32.1739C32.7786 26.9788 33.2675 26.4873 33.2659 25.8827V16.0391C33.2675 15.4344 32.7786 14.943 32.1739 14.9414Z" stroke="#1B1B1B" stroke-width="0.4" stroke-linecap="round" stroke-linejoin="round"/>
<ellipse cx="14.4467" cy="20.6315" rx="1.09078" ry="1.09639" fill="white" stroke="#1B1B1B" stroke-width="0.4" stroke-linecap="round" stroke-linejoin="round"/>
<ellipse cx="19.0063" cy="20.6315" rx="1.09078" ry="1.09639" fill="white" stroke="#1B1B1B" stroke-width="0.4" stroke-linecap="round" stroke-linejoin="round"/>
<ellipse cx="23.5664" cy="20.6315" rx="1.09078" ry="1.09639" fill="white" stroke="#1B1B1B" stroke-width="0.4" stroke-linecap="round" stroke-linejoin="round"/>
<ellipse cx="28.1264" cy="20.6315" rx="1.09078" ry="1.09639" fill="white" stroke="#1B1B1B" stroke-width="0.4" stroke-linecap="round" stroke-linejoin="round"/>
<path d="M29.0934 23.709C28.5374 24.2065 27.9253 24.6375 27.2695 24.9933" stroke="#1B1B1B" stroke-width="0.4" stroke-linecap="round" stroke-linejoin="round"/>
<path d="M15.8641 16.3438L15.5469 16.8223" stroke="#1B1B1B" stroke-width="0.4" stroke-linecap="round" stroke-linejoin="round"/>
<path d="M30.8526 24.0957L29.606 25.2574" stroke="white" stroke-width="0.4" stroke-linecap="round" stroke-linejoin="round"/>
<path d="M79.0428 67.014C78.298 67.4111 77.4075 67.4252 76.6505 67.0518L64.8716 61.2461V73.9503C64.8707 74.2765 64.9995 74.5898 65.2296 74.821C65.4597 75.0523 65.7723 75.1827 66.0985 75.1836H88.5411C88.8674 75.1827 89.1799 75.0523 89.41 74.821C89.6401 74.5898 89.7689 74.2766 89.7681 73.9503V61.2994L79.0428 67.014Z" fill="white" stroke="#1B1B1B" stroke-width="0.4" stroke-linecap="round" stroke-linejoin="round"/>
<path d="M79.0428 67.0129L89.768 61.2983V59.9286C89.7698 59.2492 89.2204 58.6971 88.5411 58.6953H66.0985C65.4192 58.6971 64.8698 59.2492 64.8716 59.9286V61.245L76.6505 67.0508C77.4075 67.4241 78.298 67.41 79.0428 67.0129Z" fill="white" stroke="#1B1B1B" stroke-width="0.4" stroke-linecap="round" stroke-linejoin="round"/>
<ellipse cx="89.7675" cy="60.04" rx="4.47209" ry="4.49508" fill="white"/>
<mask id="mask15_267_78375" style="mask-type:luminance" maskUnits="userSpaceOnUse" x="85" y="55" width="10" height="10">
<ellipse cx="89.7675" cy="60.04" rx="4.47209" ry="4.49508" fill="white"/>
</mask>
<g mask="url(#mask15_267_78375)">
<path d="M87.2324 54.0879C96.2196 55.177 93.67 63.2606 91.1205 64.7926C88.5709 66.3245 96.347 64.5343 96.347 64.5343L94.9448 55.5442L90.4453 54.0879" fill="white"/>
</g>
<ellipse cx="89.7675" cy="60.04" rx="4.47209" ry="4.49508" stroke="#8F6EE3" stroke-width="0.4" stroke-linecap="round" stroke-linejoin="round"/>
<path d="M90.4415 61.7992H89.812V59.0138L89.0898 59.4342L89.0941 58.8015L89.9811 58.2793H90.4458L90.4415 61.7992Z" fill="white" stroke="#1B1B1B" stroke-width="0.4" stroke-linecap="round" stroke-linejoin="round"/>
<path d="M68.3809 60.1855L67.7861 60.6982" stroke="#1B1B1B" stroke-width="0.4" stroke-linecap="round" stroke-linejoin="round"/>
<path d="M84.3597 71.6445L82.7466 72.0776" stroke="#1B1B1B" stroke-width="0.4" stroke-linecap="round" stroke-linejoin="round"/>
<defs>
<linearGradient id="paint0_linear_267_78375" x1="13.0108" y1="58.1188" x2="21.4375" y2="58.2319" gradientUnits="userSpaceOnUse">
<stop stop-color="#FFFEFF"/>
<stop offset="1" stop-color="#C5EFFE"/>
</linearGradient>
</defs>
</svg>
