<svg width="118" height="45" viewBox="0 0 118 45" fill="none" xmlns="http://www.w3.org/2000/svg">
<g clip-path="url(#clip0_253_72606)">
<path d="M32.2065 36.7291V4.18984C32.2065 1.46917 33.893 0 36.2324 0C38.5717 0 40.2582 1.46917 40.2582 4.18984V15.8888H40.4214C42.0535 12.4063 45.3177 10.3386 49.5067 10.3386C56.9599 10.3386 61.4753 15.9976 61.4753 25.52C61.4753 34.9879 56.9599 40.7013 49.5611 40.7013C45.2632 40.7013 41.9991 38.6336 40.367 35.2056H40.2038V36.7836C40.2038 39.4498 38.5717 40.8646 36.2324 40.8646C33.8386 40.7557 32.2065 39.3954 32.2065 36.7291ZM53.2061 25.4655C53.2061 20.133 50.7035 16.705 46.7321 16.705C42.8151 16.705 40.1494 20.1874 40.1494 25.4655C40.1494 30.7981 42.8151 34.1717 46.7321 34.1717C50.7579 34.2261 53.2061 30.8525 53.2061 25.4655Z" fill="#FCFCFC"/>
<path d="M67.7317 16.8132H66.2084C64.3043 16.8132 63.1074 15.6705 63.1074 13.8204C63.1074 11.9704 64.3043 10.8277 66.2084 10.8277H67.7317V7.56289C67.7317 5.00545 69.255 3.37305 71.7575 3.37305C74.26 3.37305 75.7833 4.95104 75.7833 7.56289V10.8277H78.6123C80.5164 10.8277 81.6588 12.0248 81.6588 13.8204C81.6588 15.6705 80.462 16.8132 78.6123 16.8132H75.7833V30.9063C75.7833 32.974 76.4905 33.8446 78.2314 34.0079L78.7755 34.0623C80.734 34.2799 81.822 35.0961 81.822 36.9462C81.822 39.286 79.5371 40.5375 76.1641 40.5375H75.8921C70.5606 40.5375 67.8405 37.8712 67.8405 32.7019V16.8132H67.7317Z" fill="#FCFCFC"/>
<path d="M84.3242 37.9254C84.3242 36.6195 85.4123 35.5312 86.7179 35.5312C88.0236 35.5312 89.1117 36.6195 89.1117 37.9254C89.1117 39.2314 88.0236 40.3196 86.7179 40.3196C85.4123 40.3196 84.3242 39.2858 84.3242 37.9254Z" fill="#FCFCFC"/>
<path d="M91.2876 38.0346V25.6283C91.2876 23.9415 92.2668 23.1797 93.6813 23.1797C95.0958 23.1797 96.0751 23.9415 96.0751 25.6283V31.8859H96.1839L99.7745 28.0769C100.427 27.3695 101.026 27.0431 101.733 27.0431C102.984 27.0431 103.909 27.9137 103.909 29.1652C103.909 29.927 103.691 30.3623 102.984 31.0697L100.645 33.1918L103.039 36.511C103.583 37.2728 103.746 37.7081 103.746 38.3067C103.746 39.6126 102.821 40.5376 101.461 40.5376C100.318 40.5376 99.7201 40.1023 98.904 38.7964L97.0543 35.8036L96.0207 36.7287V38.089C96.0207 39.7758 95.0414 40.5376 93.6269 40.5376C92.2669 40.4832 91.2876 39.7214 91.2876 38.0346Z" fill="#FCFCFC"/>
<path d="M104.943 42.6055C104.725 42.2246 104.671 41.8437 104.671 41.5172C104.671 40.5922 105.378 39.8848 106.521 39.8848C107.065 39.8848 107.554 40.0481 107.99 40.3746C108.806 40.9731 109.731 41.4628 110.71 41.4628C112.287 41.4628 113.158 40.6466 113.158 39.3407V37.273H113.049C112.614 38.6333 111.145 39.5584 109.241 39.5584C106.14 39.5584 104.236 37.273 104.236 33.4096C104.236 29.383 106.031 27.2065 109.295 27.2065C111.145 27.2065 112.559 28.2403 113.049 29.7095H113.158V29.4919C113.158 27.8594 114.192 27.0977 115.552 27.0977C116.912 27.0977 117.891 27.805 117.891 29.4919V39.4495C117.891 43.0408 115.334 44.9997 110.764 44.9997C107.826 44.9997 105.705 43.9114 104.943 42.6055ZM113.267 33.5185C113.267 31.7228 112.505 30.5801 111.254 30.5801C110.003 30.5801 109.241 31.6684 109.241 33.5185C109.241 35.3685 110.003 36.348 111.254 36.348C112.505 36.2935 113.267 35.3685 113.267 33.5185Z" fill="#FCFCFC"/>
<path d="M3.53607 40.7552C2.50241 40.7552 1.52316 40.3199 0.81592 39.4493C-0.435348 37.9257 -0.217736 35.6947 1.30555 34.4976L14.1446 23.9414L26.9837 34.4432C28.507 35.6947 28.7246 37.9257 27.4734 39.3949C26.2221 40.9184 23.9916 41.1361 22.5227 39.8846L14.1446 33.0829L5.76659 39.939C5.11375 40.4831 4.35211 40.7552 3.53607 40.7552Z" fill="#73F4AD"/>
<path d="M14.1446 30.7438L1.30555 20.242C-0.217736 18.9905 -0.435348 16.7596 0.81592 15.2904C2.06719 13.7668 4.29771 13.5492 5.76659 14.8007L14.1446 21.6024L22.5227 14.7463C24.046 13.4947 26.2765 13.7124 27.4734 15.236C28.7246 16.7596 28.507 18.9905 26.9837 20.1876L14.1446 30.7438Z" fill="#8D6BE2"/>
</g>
<defs>
<clipPath id="clip0_253_72606">
<rect width="118" height="45" fill="white"/>
</clipPath>
</defs>
</svg>
