<svg width="40" height="50" viewBox="0 0 40 50" fill="none" xmlns="http://www.w3.org/2000/svg">
<path fill-rule="evenodd" clip-rule="evenodd" d="M19.9808 0.323043C20.2324 0.215236 20.5171 0.215236 20.7687 0.323043L38.6408 7.98255C39.3762 8.2977 39.853 9.02078 39.853 9.82084V34.7168C39.853 37.2288 38.507 39.5482 36.326 40.7945L20.8709 49.626C20.5634 49.8016 20.186 49.8016 19.8786 49.626L4.42351 40.7945C2.24249 39.5482 0.896484 37.2288 0.896484 34.7168V9.82084C0.896484 9.02078 1.37328 8.29771 2.10864 7.98255L19.9808 0.323043ZM29.0011 20.4276C29.3917 20.037 29.3917 19.4039 29.0011 19.0133C28.6106 18.6228 27.9775 18.6228 27.5869 19.0133L17.735 28.8652L13.1626 24.2928C12.7721 23.9023 12.1389 23.9023 11.7484 24.2928C11.3579 24.6834 11.3579 25.3165 11.7484 25.7071L17.0279 30.9866C17.4184 31.3771 18.0516 31.3771 18.4421 30.9866L29.0011 20.4276Z" fill="#1A1B23"/>
</svg>
