<svg width="48" height="45" viewBox="0 0 48 45" fill="none" xmlns="http://www.w3.org/2000/svg">
<path fill-rule="evenodd" clip-rule="evenodd" d="M23.7773 1.7812C24.5192 0.668405 25.7681 0 27.1055 0H32.3195C33.5554 0 34.4955 1.10973 34.2923 2.3288L32.0138 16H44.3937C46.2869 16 47.7067 17.732 47.3355 19.5884L42.8021 42.255C42.5217 43.6573 41.2904 44.6667 39.8604 44.6667H3.5C1.84315 44.6667 0.5 43.3235 0.5 41.6667V17C0.5 16.4477 0.947715 16 1.5 16H13.763C14.0973 16 14.4095 15.8329 14.595 15.5547L23.7773 1.7812ZM11.1667 18H2.5V41.6667C2.5 42.219 2.94771 42.6667 3.5 42.6667H11.1667V18Z" fill="#1A1B23"/>
</svg>
